<svg id="Capa_1" enable-background="new 0 0 512 512" height="512" viewBox="0 0 512 512" width="512" xmlns="http://www.w3.org/2000/svg"><g><path d="m397 512h-132c-30.327 0-55-24.673-55-55v-62c0-8.284 6.716-15 15-15s15 6.716 15 15v62c0 13.785 11.215 25 25 25h132c13.785 0 25-11.215 25-25v-162c0-8.284 6.716-15 15-15s15 6.716 15 15v162c0 30.328-24.673 55-55 55z" fill="#a6d3e7"/><path d="m65 512h-50c-8.284 0-15-6.716-15-15s6.716-15 15-15h50c13.785 0 25-11.215 25-25v-62c0-8.284 6.716-15 15-15s15 6.716 15 15v62c0 30.328-24.673 55-55 55z" fill="#c8eafc"/><g><path d="m120 410h-30c-11.046 0-20-8.954-20-20v-70h70v70c0 11.046-8.954 20-20 20z" fill="#415e97"/></g><g><path d="m240 410h-30c-11.046 0-20-8.954-20-20v-70h70v70c0 11.046-8.954 20-20 20z" fill="#283c6d"/></g><path d="m74.999 350c-1.592 0-3.193-.253-4.742-.77l-60-20c-6.125-2.041-10.257-7.773-10.257-14.23v-280c0-6.457 4.131-12.188 10.257-14.23l60-20c4.575-1.523 9.603-.757 13.514 2.062s6.229 7.347 6.229 12.168v320c0 4.822-2.318 9.35-6.229 12.168-2.587 1.866-5.662 2.832-8.772 2.832z" fill="#c8eafc"/><path d="m255.001 350c-3.109 0-6.185-.967-8.771-2.832-3.912-2.818-6.23-7.346-6.23-12.168v-320c0-4.822 2.318-9.35 6.229-12.168 3.911-2.82 8.94-3.587 13.514-2.062l60 20c6.126 2.042 10.257 7.774 10.257 14.23v280c0 6.457-4.131 12.188-10.257 14.23l-60 20c-1.548.517-3.15.77-4.742.77z" fill="#a6d3e7"/><path d="m437 310c-19.33 0-35-15.67-35-35v-240c0-19.33 15.67-35 35-35h40c19.33 0 35 15.67 35 35v40c0 17.602-13.061 32.21-30 34.644h-10v165.356c0 19.33-15.67 35-35 35z" fill="#c8eafc"/><path d="m487 250h-100c-8.284 0-15-6.716-15-15s6.716-15 15-15h100c8.284 0 15 6.716 15 15s-6.716 15-15 15z" fill="#a6d3e7"/><path d="m75 0h180v350h-180z" fill="#e6f5ff"/><path d="m165 0h90v350h-90z" fill="#c8eafc"/><path d="m195 90h-60c-8.284 0-15-6.716-15-15s6.716-15 15-15h60c8.284 0 15 6.716 15 15s-6.716 15-15 15z" fill="#5b7dc4"/><path d="m195 150h-60c-8.284 0-15-6.716-15-15s6.716-15 15-15h60c8.284 0 15 6.716 15 15s-6.716 15-15 15z" fill="#5b7dc4"/><path d="m165 290c-24.813 0-45-20.187-45-45 0-20.703 25.898-51.173 33.836-60.018 2.845-3.17 6.904-4.982 11.164-4.982s8.319 1.812 11.164 4.982c7.938 8.846 33.836 39.316 33.836 60.018 0 24.813-20.187 45-45 45z" fill="#98f9ff"/><path d="m210 75c0-8.284-6.716-15-15-15h-30v30h30c8.284 0 15-6.715 15-15z" fill="#415e97"/><path d="m210 135c0-8.284-6.716-15-15-15h-30v30h30c8.284 0 15-6.715 15-15z" fill="#415e97"/><path d="m210 245c0-20.703-25.898-51.173-33.836-60.018-2.845-3.17-6.904-4.982-11.164-4.982v110c24.813 0 45-20.187 45-45z" fill="#5ad0f4"/></g></svg>