<svg id="Capa_1" enable-background="new 0 0 512 512" height="512" viewBox="0 0 512 512" width="512" xmlns="http://www.w3.org/2000/svg"><g><g><g><path d="m441.837 214.287-17.017-43.143-31.879-12.572v95.774l13.788 34.955 34.958 13.786-34.958 13.787-13.788 34.955v73.06h58.861v-235.867z" fill="#e2c4ff"/></g><g><path d="m392.941 149.685 31.879-12.572 17.017-43.143 9.965 25.264v-94.406h-396.773v400.061h58.86v-341.086h279.052z" fill="#e2c4ff"/></g></g><g><path d="m500.277 414.889h-97.335v-61.159l11.496-29.147 30.917-12.193c3.821-1.507 6.332-5.196 6.332-9.303s-2.511-7.796-6.332-9.303l-30.917-12.193-11.496-29.147v-79.18l14.17 5.588 15.423 39.103c1.507 3.82 5.196 6.331 9.303 6.331s7.796-2.511 9.303-6.331l15.423-39.103 39.106-15.422c3.821-1.507 6.332-5.196 6.332-9.303s-2.511-7.796-6.331-9.303l-39.106-15.422-15.425-39.101c-1.507-3.82-5.196-6.331-9.303-6.331s-7.796 2.511-9.303 6.331l-15.423 39.103-14.17 5.588v-51.189c0-5.523-4.477-10-10-10h-279.052c-5.523 0-10 4.477-10 10v331.086h-93.889c-5.523 0-10 4.477-10 10v52.283c0 5.523 4.477 10 10 10h490.277c5.523 0 10-4.477 10-10v-52.283c0-5.523-4.477-10-10-10zm-236.861-150.543h114.832l-6.802 17.246-30.917 12.193c-3.821 1.507-6.332 5.196-6.332 9.303s2.511 7.796 6.332 9.303l30.917 12.193 11.496 29.147v61.159h-119.526zm151.013 38.741-11.369 4.483c-2.578 1.017-4.618 3.056-5.634 5.634l-4.484 11.37-4.484-11.37c-1.017-2.578-3.057-4.617-5.634-5.634l-11.369-4.483 11.369-4.483c2.578-1.017 4.618-3.056 5.634-5.634l4.484-11.37 4.484 11.37c1.017 2.578 3.057 4.617 5.634 5.634zm14.06-156.672c2.578-1.017 4.618-3.056 5.634-5.634l7.714-19.558 7.714 19.558c1.017 2.578 3.057 4.617 5.634 5.634l19.557 7.713-19.557 7.712c-2.578 1.017-4.618 3.056-5.634 5.634l-7.714 19.558-7.714-19.558c-1.017-2.578-3.057-4.617-5.634-5.634l-19.557-7.712zm-45.548-3.536-4.937 1.947c-3.82 1.507-6.331 5.196-6.331 9.303s2.511 7.796 6.332 9.303l4.936 1.947v78.969h-119.525v-150.545h119.526v49.076zm-259.052-49.076h119.526v150.543h-119.526zm0 170.543h119.526v150.543h-119.526zm366.388 202.826h-470.277v-32.283h470.277z" fill="#020288"/></g></g></svg>