<?xml version="1.0"?>
<svg xmlns="http://www.w3.org/2000/svg" xmlns:xlink="http://www.w3.org/1999/xlink" xmlns:svgjs="http://svgjs.com/svgjs" version="1.1" width="512" height="512" x="0" y="0" viewBox="0 0 512 512" style="enable-background:new 0 0 512 512" xml:space="preserve" class=""><g><path xmlns="http://www.w3.org/2000/svg" d="m267.14 149.68h69.94a49.443 49.443 0 0 0 -69.94 0z" fill="#f4d4d4" data-original="#d4e1f4" style="" class=""/><path xmlns="http://www.w3.org/2000/svg" d="m69.39 413.82a37.324 37.324 0 0 1 0-52.79l44.87-44.87 21.12-21.11 65.58-153.03 13.6-31.73-20-20-13.6 31.73-65.58 153.03-21.12 21.11-44.87 44.87a37.324 37.324 0 0 0 0 52.79z" fill="#f4d4d4" data-original="#d4e1f4" style="" class=""/><g xmlns="http://www.w3.org/2000/svg" fill="#1ae5be"><path d="m262.9 145.433-6.6 6.6 8.485 8.486 6.6-6.6a43.457 43.457 0 1 1 61.458 61.458l-6.6 6.6 8.485 8.485 6.6-6.6a55.458 55.458 0 1 0 -78.43-78.429z" fill="#1ae5be" data-original="#1ae5be" style=""/><path d="m370.9 113.64a53.028 53.028 0 0 0 -6.118-5.253 6 6 0 1 0 -7.1 9.677 40.983 40.983 0 0 1 4.729 4.061 40.441 40.441 0 0 1 11.889 28.634 6 6 0 0 0 6 5.991h.01a6 6 0 0 0 5.99-6.01 52.443 52.443 0 0 0 -15.4-37.1z" fill="#1ae5be" data-original="#1ae5be" style=""/><path d="m333.8 98.241h-.01a6 6 0 0 0 -.009 12 40.721 40.721 0 0 1 11.579 1.7 6 6 0 0 0 3.43-11.5 52.77 52.77 0 0 0 -14.99-2.2z" fill="#1ae5be" data-original="#1ae5be" style=""/><path d="m418.069 98.562a99.878 99.878 0 0 0 -40.018-36.52 6 6 0 1 0 -5.363 10.735 87.114 87.114 0 0 1 48.239 77.975 6 6 0 0 0 6 6 6 6 0 0 0 6-6 98.925 98.925 0 0 0 -14.858-52.185z" fill="#1ae5be" data-original="#1ae5be" style=""/><path d="m357.051 66.564a6 6 0 0 0 1.492-11.812 99.573 99.573 0 0 0 -24.743-3.138 6 6 0 0 0 0 12 87.5 87.5 0 0 1 21.762 2.76 6.019 6.019 0 0 0 1.489.19z" fill="#1ae5be" data-original="#1ae5be" style=""/><path d="m388.439 15.613a6 6 0 1 0 -4.5 11.126 133.967 133.967 0 0 1 83.6 124.012 6 6 0 0 0 6 6 6 6 0 0 0 6-6 145.971 145.971 0 0 0 -91.1-135.135z" fill="#1ae5be" data-original="#1ae5be" style=""/><path d="m369.47 21.621a6 6 0 0 0 1.524-11.8 146.334 146.334 0 0 0 -37.2-4.821 6 6 0 0 0 0 12 134.343 134.343 0 0 1 34.149 4.422 6 6 0 0 0 1.527.199z" fill="#1ae5be" data-original="#1ae5be" style=""/></g><path xmlns="http://www.w3.org/2000/svg" d="m203.065 164.578a6 6 0 0 0 -8.04 2.714l-10.917 22.045a6 6 0 1 0 10.754 5.326l10.917-22.046a6 6 0 0 0 -2.714-8.039z" fill="#e20d23" data-original="#0635c9" style="" class=""/><path xmlns="http://www.w3.org/2000/svg" d="m184.512 202.679a6 6 0 0 0 -7.972 2.907l-3.651 7.842a6 6 0 1 0 10.879 5.065l3.651-7.842a6 6 0 0 0 -2.907-7.972z" fill="#e20d23" data-original="#0635c9" style="" class=""/><path xmlns="http://www.w3.org/2000/svg" d="m171.869 229.633a6 6 0 0 0 -7.931 3.018l-17.359 38.685a6 6 0 1 0 10.948 4.912l17.36-38.684a6 6 0 0 0 -3.018-7.931z" fill="#e20d23" data-original="#0635c9" style="" class=""/><path xmlns="http://www.w3.org/2000/svg" d="m92 444.91a43.382 43.382 0 0 0 46.017 9.853l82.236 46.7a42.435 42.435 0 1 0 41.91-73.8l-58.45-33.194 14.727-14.728 183.7-78.725a6 6 0 0 0 1.88-9.757l-205.22-205.213a6 6 0 0 0 -9.757 1.88l-78.726 183.694-65.168 65.168a43.375 43.375 0 0 0 0 61.274zm23.378-161.379 91.152 91.152-12.63 12.63-91.152-91.152zm67.607-151 44.826 44.825a6 6 0 0 0 8.484 0 6 6 0 0 0 0-8.485l-48.218-48.219 8.507-19.85 192.677 192.677-19.849 8.506-104.834-104.834a6 6 0 0 0 -8.486 0 6 6 0 0 0 0 8.485l101.44 101.44-141.15 60.491-93.891-93.891zm-129.351 212.741 40.627-40.626 91.152 91.154-6.874 6.874a6 6 0 0 0 .618 9.024 6 6 0 0 0 7.867-.539l7.885-7.885 61.326 34.826a30.434 30.434 0 1 1 -30.058 52.929l-76.109-43.221q1.656-1.356 3.2-2.9l5.2-5.2a6 6 0 0 0 -.619-9.024 6 6 0 0 0 -7.866.539l-5.2 5.2a31.363 31.363 0 0 1 -44.3 0l-46.849-46.846a31.329 31.329 0 0 1 0-44.305z" fill="#e20d23" data-original="#0635c9" style="" class=""/></g></svg>
