<svg height="508pt" viewBox="0 -98 508.001 508" width="508pt" xmlns="http://www.w3.org/2000/svg"><path d="m104.007812 223.984375h-72.007812s-32 16-32 40v32h136.007812v-32c0-24-32-40-32-40zm0 0" fill="#ed5565"/><path d="m144 128-24 8h-11.433594l3.433594-24h32zm0 0" fill="#656d78"/><path d="m48 112-16 112v-.015625h72.007812v.015625l16-112zm0 0" fill="#da4453"/><path d="m216 0h-16v112h16s40 0 56-16v-80c-16-16-56-16-56-16zm0 0" fill="#e6e9ed"/><path d="m24 0c-13.199219 0-24 10.800781-24 24v64c0 13.199219 10.800781 24 24 24h176v-112zm0 0" fill="#ed5565"/><path d="m506.832031 53.167969-7.992187-7.984375c-.375-.375-.824219-.671875-1.304688-.871094-.496094-.199219-1.015625-.3125-1.535156-.3125h-136.007812c-2.207032 0-4 1.800781-4 4 0 2.214844 1.792968 4 4 4v8c-2.207032 0-4 1.800781-4 4 0 2.214844 1.792968 4 4 4h136.007812c.519531 0 1.039062-.113281 1.527344-.296875.488281-.199219.929687-.503906 1.304687-.871094l7.992188-8c1.566406-1.566406 1.566406-4.09375.007812-5.664062zm0 0" fill="#ccd1d9"/><path d="m383.992188 76c-1.023438 0-2.046876-.390625-2.832032-1.167969-1.558594-1.558593-1.558594-4.09375 0-5.65625l32-32c1.558594-1.558593 4.097656-1.558593 5.65625 0 1.558594 1.5625 1.558594 4.097657 0 5.65625l-32 32c-.777344.777344-1.800781 1.167969-2.824218 1.167969zm0 0" fill="#e6e9ed"/><path d="m415.992188 76c-1.023438 0-2.046876-.390625-2.832032-1.167969-1.558594-1.558593-1.558594-4.09375 0-5.65625l32-32c1.558594-1.558593 4.097656-1.558593 5.65625 0 1.558594 1.5625 1.558594 4.097657 0 5.65625l-32 32c-.777344.777344-1.800781 1.167969-2.824218 1.167969zm0 0" fill="#e6e9ed"/><path d="m447.992188 76c-1.023438 0-2.046876-.390625-2.832032-1.167969-1.558594-1.558593-1.558594-4.09375 0-5.65625l32-32c1.558594-1.558593 4.097656-1.558593 5.65625 0 1.558594 1.5625 1.558594 4.097657 0 5.65625l-32 32c-.777344.777344-1.800781 1.167969-2.824218 1.167969zm0 0" fill="#e6e9ed"/><path d="m23.992188 52h-23.992188v8h23.992188c2.207031 0 4-1.785156 4-4 0-2.199219-1.792969-4-4-4zm0 0" fill="#da4453"/><path d="m23.992188 36.015625h-23.992188v8h23.992188c2.207031 0 4-1.800781 4-4 0-2.214844-1.792969-4-4-4zm0 0" fill="#da4453"/><path d="m23.992188 68h-23.992188v8h23.992188c2.207031 0 4-1.800781 4-4 0-2.214844-1.792969-4-4-4zm0 0" fill="#da4453"/><g fill="#ed5565"><path d="m98.289062 147.984375h-40.007812c-2.210938 0-4-1.785156-4-4 0-2.199219 1.789062-4 4-4h40.007812c2.207032 0 4 1.800781 4 4 0 2.214844-1.785156 4-4 4zm0 0"/><path d="m96.007812 172h-40.007812c-2.207031 0-4-1.800781-4-4 0-2.214844 1.792969-4 4-4h40.007812c2.207032 0 4 1.785156 4 4 0 2.199219-1.792968 4-4 4zm0 0"/><path d="m93.726562 196h-40.007812c-2.207031 0-4-1.785156-4-4 0-2.199219 1.792969-4 4-4h40.007812c2.210938 0 4 1.800781 4 4 0 2.214844-1.789062 4-4 4zm0 0"/></g><path d="m336 24h-23.992188v64h23.992188c13.199219 0 24-10.800781 24-24v-16c0-13.199219-10.800781-24-24-24zm0 0" fill="#e6e9ed"/><path d="m336 52h-23.992188v8h23.992188c2.207031 0 4-1.785156 4-4 0-2.199219-1.792969-4-4-4zm0 0" fill="#ccd1d9"/><path d="m308.007812 16h-32.007812c-.015625 0-.023438 0-.039062 0h-3.960938v80.015625h36.007812c2.199219 0 4-1.800781 4-4v-72.015625c0-2.199219-1.800781-4-4-4zm0 0" fill="#656d78"/><path d="m227.992188 40h-27.992188v32h27.992188c2.199218 0 4-1.800781 4-4v-24c0-2.199219-1.800782-4-4-4zm0 0" fill="#ccd1d9"/><path d="m0 280v24c0 4.390625 3.601562 8 8 8h120.007812c4.398438 0 8-3.609375 8-8v-24zm0 0" fill="#656d78"/></svg>