<svg id="Capa_1" enable-background="new 0 0 510 510" height="512" viewBox="0 0 510 510" width="512" xmlns="http://www.w3.org/2000/svg"><g><path d="m0 64h510v422h-510z" fill="#ecf9fd"/><path d="m256 64h254v422h-254z" fill="#d9f3fc"/><path d="m0 152h510v30h-510z" fill="#c9885b"/><path d="m256 152h254v30h-254z" fill="#895140"/><path d="m96 24h30v80h-30z" fill="#c9885b"/><path d="m168 24h30v80h-30z" fill="#c9885b"/><path d="m240 24h30v80h-30z" fill="#c9885b"/><path d="m256 24h14v80h-14z" fill="#895140"/><path d="m312 24h30v80h-30z" fill="#895140"/><path d="m384 24h30v80h-30z" fill="#895140"/><g fill="#c9885b"><path d="m63 240h32v30h-32z"/><path d="m63 304h32v30h-32z"/><path d="m63 368h32v30h-32z"/><path d="m127 368h32v30h-32z"/><path d="m127 304h32v30h-32z"/><path d="m127 240h32v30h-32z"/><path d="m191 240h32v30h-32z"/><path d="m191 304h32v30h-32z"/><path d="m191 368h32v30h-32z"/></g><path d="m424.631 255.768c-18.079-18.08-45.581-20.479-66.109-7.928-20.131-12.309-47.72-10.461-66.109 7.928-20.753 20.755-21.345 54.818.048 76.21l66.202 65.608 65.968-65.656c21.045-21.045 21.048-55.113 0-76.162z" fill="#e62e6b"/></g></svg>