<?xml version="1.0"?>
<svg xmlns="http://www.w3.org/2000/svg" xmlns:xlink="http://www.w3.org/1999/xlink" xmlns:svgjs="http://svgjs.com/svgjs" version="1.1" width="512" height="512" x="0" y="0" viewBox="0 0 64 64" style="enable-background:new 0 0 512 512" xml:space="preserve" class=""><g><g xmlns="http://www.w3.org/2000/svg"><g><path d="m25.609 21h12.626c.527-.372 1.03-.785 1.494-1.252 2.069-2.086 3.202-4.853 3.19-7.791s-1.166-5.696-3.252-7.766c-2.074-2.059-4.823-3.191-7.745-3.191-.015 0-.03 0-.045 0-2.938.012-5.696 1.167-7.766 3.253-2.069 2.086-3.202 4.853-3.19 7.791s1.166 5.696 3.252 7.765c.447.444.931.835 1.436 1.191z" fill="#f0bc5e" data-original="#f0bc5e" style=""/></g><g><g><path d="m47.107 58.94-.048-12 10-.04.048 12z" fill="#f0bc5e" data-original="#f0bc5e" style=""/></g></g><g><g><path d="m7.107 59.099-.048-12 10-.04.048 12z" fill="#f0bc5e" data-original="#f0bc5e" style=""/></g></g><g><path d="m30.912 13.004h.012l2-.008h.004c.55 0 .999.446 1.001.996.002.552-.445 1.002-.996 1.004l-3 .012-.004-1-2 .008.012 3 3-.012.008 2 2-.008-.008-2c1.653-.006 2.994-1.357 2.988-3.012-.007-1.65-1.353-2.988-3.001-2.988-.004 0-.008 0-.012 0l-2 .008c-.001 0-.003 0-.004 0-.55 0-.998-.446-1-.995-.002-.552.445-1.002.996-1.004l3-.012.004 1 2-.008-.012-3-3 .012-.008-2-2 .008.008 2c-1.653.006-2.994 1.357-2.988 3.012.007 1.65 1.352 2.987 3 2.987z" fill="#660909" data-original="#000000" style="" class=""/><path d="m63.044 42.876-.017-3.999c-.004-1.101-.9-1.993-2.001-1.993-.002 0-.005 0-.007 0l-6 .024-.056-14 4-.016-.01-2.541-16.249-10.533c.139.697.213 1.412.216 2.138 0 .126-.013.25-.017.375l13.226 8.572-17.861.071c-.011.008-.022.017-.033.025h-6.279l-24.173.097 13.157-8.677c-.005-.125-.019-.249-.02-.375-.003-.726.065-1.442.199-2.14l-16.165 10.662.01 2.541 4-.016.056 14-6 .024c-1.102.005-1.995.905-1.991 2.008l.016 4c.002.535.212 1.036.592 1.413.377.375.877.58 1.407.58h.009l.072 18 57.999-.231-.071-18c1.101-.005 1.995-.905 1.991-2.009zm-2.017-3.991.017 4-14.66.059-5.216-3.98zm-31.939 15.127c-.007-1.654 1.334-3.005 2.987-3.012h.012c1.649 0 2.994 1.338 3.001 2.988l.027 7-6 .024zm8-.032c-.011-2.75-2.252-4.98-5-4.98-.007 0-.014 0-.021 0-1.336.005-2.589.53-3.529 1.479s-1.455 2.206-1.45 3.541l.027 7-2 .008-.056-14 14-.056.056 14-2 .008zm-2.108-26.992 3.999-.016.024 6-4 .016zm10.07 17.453.002.507-3.634.014-9.397-7.86-9.334 7.934-3.635.014-.002-.508 12.302-9.542 1.32-.005zm-6.735.534-12.526.05 6.242-5.306zm-15.255 2.061.056 14-2 .008-.056-14zm18-.072 2-.008.056 14-2 .008zm-30.096-23.88 42-.167.056 14-14.46.058-2.608-1.989 5.06-.02-.04-10-7.999.032.031 8-2 .008-.031-8-8 .032.039 10 5.06-.02-2.592 2.01-14.46.058zm18.04 9.928-4 .016-.023-6 4-.016zm-25.976 6.103 19.86-.079-5.184 4.021-14.66.058zm2.024 5.992 12-.048.008 2 2-.008.056 14-14 .056zm40.063 15.841-.056-14 2-.008-.008-2 12-.048.063 16z" fill="#660909" data-original="#000000" style="" class=""/><path d="m51.012 34.924-.04-10-8 .032.04 10zm-2.033-7.992.024 6-4 .016-.024-6z" fill="#660909" data-original="#000000" style="" class=""/><path d="m12.973 25.076.039 10 8-.032-.039-10zm2.031 7.992-.023-6 4-.016.023 6z" fill="#660909" data-original="#000000" style="" class=""/></g></g></g></svg>
