<?xml version="1.0"?>
<svg xmlns="http://www.w3.org/2000/svg" xmlns:xlink="http://www.w3.org/1999/xlink" xmlns:svgjs="http://svgjs.com/svgjs" version="1.1" width="512" height="512" x="0" y="0" viewBox="0 0 512 512" style="enable-background:new 0 0 512 512" xml:space="preserve" class=""><g><g xmlns="http://www.w3.org/2000/svg" id="Outline"><path d="M448.379,466.432l15.242-4.864-30.64-96-15.242,4.864,13.034,40.844L349.754,353.34l50.914-36.4,11.966,37.5,15.242-4.864L354.411,119.375a24,24,0,1,0-36.822,0l-73.052,228.9,15.242,4.865,11.553-36.2,50.914,36.4-67.552,48.306L264,414.661,328,368.9V424H255v16h73v24h16V440h95.943ZM344,337.785V312h36.062ZM306.247,207.54c4.918,5.447,11.47,12.7,18.815,20.825l-39.2,43.042Zm80.129,64.618c-11.288-12.386-25.388-27.931-39.708-43.754l19.063-20.932ZM328,207.758,320.993,200H328ZM344,200H350.9L344,207.571Zm0-16V139.383L358.24,184Zm-16,0H313.76L328,139.383Zm0,64.9V296H285.108Zm16,.389,3.7,4.08c14.742,16.267,26.532,29.23,35.042,38.529q1.993,2.179,3.757,4.1H344ZM291.938,312H328v25.785ZM344,424V368.9L421.059,424Zm25.338-297.888a40,40,0,1,0-66.676,0l-13.324,8.86a56,56,0,1,1,93.324,0ZM292.805,46.391,283.2,33.6A88.006,88.006,0,0,1,424,104a87.326,87.326,0,0,1-35.195,70.4l-9.61-12.793a72,72,0,0,0-86.39-115.218ZM248,104a87.786,87.786,0,0,1,22.949-59.267l11.824,10.78a72.007,72.007,0,0,0,10.032,106.1L283.2,174.4A87.326,87.326,0,0,1,248,104Zm-8,104V464a32.036,32.036,0,0,1-32,32H80a32.036,32.036,0,0,1-32-32V240H64V464a16.019,16.019,0,0,0,16,16H208a16.019,16.019,0,0,0,16-16V208a16.019,16.019,0,0,0-16-16H80a16.019,16.019,0,0,0-16,16v16H48V208a32.036,32.036,0,0,1,32-32H208A32.036,32.036,0,0,1,240,208ZM136,448h16v16H136ZM112,208h64v16H112Zm32-80c14.514,0,28.065,6.711,38.16,18.9L169.84,157.1c-7-8.451-16.177-13.1-25.84-13.1s-18.839,4.653-25.84,13.1L105.84,146.9C115.935,134.711,129.486,128,144,128Zm-50.248,5.56-11.5-11.12a85.333,85.333,0,0,1,123.5,0l-11.5,11.12a69.334,69.334,0,0,0-100.5,0ZM80,270V258a10.011,10.011,0,0,1,10-10h12a10.011,10.011,0,0,1,10,10v12a10.011,10.011,0,0,1-10,10H90A10.011,10.011,0,0,1,80,270Zm80,0a10.011,10.011,0,0,1-10,10H138a10.011,10.011,0,0,1-10-10V258a10.011,10.011,0,0,1,10-10h12a10.011,10.011,0,0,1,10,10Zm48,0a10.011,10.011,0,0,1-10,10H186a10.011,10.011,0,0,1-10-10V258a10.011,10.011,0,0,1,10-10h12a10.011,10.011,0,0,1,10,10ZM80,306a10.011,10.011,0,0,1,10-10h12a10.011,10.011,0,0,1,10,10v12a10.011,10.011,0,0,1-10,10H90a10.011,10.011,0,0,1-10-10Zm80,12a10.011,10.011,0,0,1-10,10H138a10.011,10.011,0,0,1-10-10V306a10.011,10.011,0,0,1,10-10h12a10.011,10.011,0,0,1,10,10Zm48,0a10.011,10.011,0,0,1-10,10H186a10.011,10.011,0,0,1-10-10V306a10.011,10.011,0,0,1,10-10h12a10.011,10.011,0,0,1,10,10ZM80,354a10.011,10.011,0,0,1,10-10h12a10.011,10.011,0,0,1,10,10v12a10.011,10.011,0,0,1-10,10H90a10.011,10.011,0,0,1-10-10Zm80,12a10.011,10.011,0,0,1-10,10H138a10.011,10.011,0,0,1-10-10V354a10.011,10.011,0,0,1,10-10h12a10.011,10.011,0,0,1,10,10Zm48,0a10.011,10.011,0,0,1-10,10H186a10.011,10.011,0,0,1-10-10V354a10.011,10.011,0,0,1,10-10h12a10.011,10.011,0,0,1,10,10ZM80,402a10.011,10.011,0,0,1,10-10h12a10.011,10.011,0,0,1,10,10v12a10.011,10.011,0,0,1-10,10H90a10.011,10.011,0,0,1-10-10Zm70,22H138a10.011,10.011,0,0,1-10-10V402a10.011,10.011,0,0,1,10-10h12a10.011,10.011,0,0,1,10,10v12A10.011,10.011,0,0,1,150,424Zm58-22v12a10.011,10.011,0,0,1-10,10H186a10.011,10.011,0,0,1-10-10V402a10.011,10.011,0,0,1,10-10h12A10.011,10.011,0,0,1,208,402Z" fill="#0a64a4" data-original="#000000" style=""/></g></g></svg>
