<?xml version="1.0" encoding="iso-8859-1"?>
<!-- Generator: Adobe Illustrator 19.0.0, SVG Export Plug-In . SVG Version: 6.00 Build 0)  -->
<svg version="1.1" id="Capa_1" xmlns="http://www.w3.org/2000/svg" xmlns:xlink="http://www.w3.org/1999/xlink" x="0px" y="0px"
	 viewBox="0 0 480 480" style="enable-background:new 0 0 480 480;" xml:space="preserve">
<path style="fill:#B6EB92;" d="M296,240h176V112H296V240z"/>
<path style="fill:#A4E276;" d="M296,312v160h176V240H296V312z"/>
<path style="fill:#C2B59B;" d="M136,312v160h160V312H136z M264,440h-96v-96h96V440z"/>
<path style="fill:#806749;" d="M168,344h96v96h-96V344z"/>
<path style="fill:#957856;" d="M8,312h128v48H8V312z"/>
<path style="fill:#C2B59B;" d="M8,360h128v112H8V360z"/>
<g>
	<path style="fill:#D8D7DA;" d="M120,8h48v32h-48V8z"/>
	<path style="fill:#D8D7DA;" d="M104,40l-80,96h240l-80-96h-16h-48H104z"/>
</g>
<g>
	<path style="fill:#231F20;" d="M472,104H296c-4.418,0-8,3.582-8,8v192h-40v-8h8c4.418,0,8-3.582,8-8s-3.582-8-8-8h-80
		c-4.418,0-8,3.582-8,8s3.582,8,8,8h8v8h-80v-8h8c4.418,0,8-3.582,8-8s-3.582-8-8-8H32c-4.418,0-8,3.582-8,8s3.582,8,8,8h8v8H8
		c-4.418,0-8,3.582-8,8v160c0,4.418,3.582,8,8,8h464c4.418,0,8-3.582,8-8V112C480,107.582,476.418,104,472,104z M304,120h160v112
		H304V120z M200,296h32v8h-32V296z M56,296h32v8H56V296z M16,320h112v32H16V320z M16,368h112v96H16V368z M144,320h144v144H144V320z
		 M464,464H304V248h160V464z"/>
	<path style="fill:#231F20;" d="M264,336h-96c-4.418,0-8,3.582-8,8v96c0,4.418,3.582,8,8,8h96c4.418,0,8-3.582,8-8v-96
		C272,339.582,268.418,336,264,336z M256,432h-80v-80h80V432z"/>
	<path style="fill:#231F20;" d="M320,176c-4.418,0-8,3.582-8,8v32c0,4.418,3.582,8,8,8s8-3.582,8-8v-32
		C328,179.582,324.418,176,320,176z"/>
	<path style="fill:#231F20;" d="M320,304c4.418,0,8-3.582,8-8v-32c0-4.418-3.582-8-8-8s-8,3.582-8,8v32
		C312,300.418,315.582,304,320,304z"/>
	<path style="fill:#231F20;" d="M24,144h240c4.418,0.006,8.005-3.57,8.012-7.988c0.003-1.878-0.656-3.698-1.86-5.14l-80-96
		c-1.523-1.823-3.777-2.875-6.152-2.872h-8V8c0-4.418-3.582-8-8-8h-48c-4.418,0-8,3.582-8,8v24h-8
		c-2.375-0.003-4.629,1.049-6.152,2.872l-80,96c-2.832,3.391-2.379,8.436,1.012,11.268C20.302,143.344,22.122,144.003,24,144L24,144
		z M128,16h32v16h-32V16z M107.752,48h72.496l66.672,80H41.08L107.752,48z"/>
</g>
<g>
</g>
<g>
</g>
<g>
</g>
<g>
</g>
<g>
</g>
<g>
</g>
<g>
</g>
<g>
</g>
<g>
</g>
<g>
</g>
<g>
</g>
<g>
</g>
<g>
</g>
<g>
</g>
<g>
</g>
</svg>
