<?xml version="1.0"?>
<svg xmlns="http://www.w3.org/2000/svg" xmlns:xlink="http://www.w3.org/1999/xlink" xmlns:svgjs="http://svgjs.com/svgjs" version="1.1" width="512" height="512" x="0" y="0" viewBox="0 0 512 512" style="enable-background:new 0 0 512 512" xml:space="preserve" class=""><g><g xmlns="http://www.w3.org/2000/svg"><path d="m393.326 165.09h18.247c6.431 0 11.645 5.214 11.645 11.645v46.182c0 6.431-5.214 11.645-11.645 11.645h-18.247z" fill="#ffc265" data-original="#ffc265" style=""/><path d="m411.573 215.957h-18.247v18.605h18.247c6.431 0 11.645-5.214 11.645-11.646v-18.605c0 6.432-5.214 11.646-11.645 11.646z" fill="#ffb541" data-original="#ffb541" style=""/><path d="m347.584 417.923h-213.059c-25.158 0-45.742-20.584-45.742-45.742v-232.362c0-25.158 20.584-45.742 45.742-45.742h213.059c25.158 0 45.742 20.584 45.742 45.742v232.363c0 25.158-20.584 45.741-45.742 45.741z" fill="#8bcaff" data-original="#8bcaff" style="" class=""/><path d="m347.584 399.319h-213.059c-25.158 0-45.742-20.584-45.742-45.742v18.605c0 25.158 20.584 45.742 45.742 45.742h213.059c25.158 0 45.742-20.584 45.742-45.742v-18.605c0 25.158-20.584 45.742-45.742 45.742z" fill="#60b8ff" data-original="#60b8ff" style="" class=""/><path d="m134.525 94.076h213.059c8.994 0 17.397 2.642 24.49 7.172-11.139-8.8-30.562-24.894-34.464-33.054-3.297-6.894-8.064-24.73-11.384-38.039-2.666-10.689-11.374-19.158-22.722-22.181-14.301-3.811-35.981-7.974-62.45-7.974s-48.149 4.163-62.449 7.974c-11.348 3.024-20.056 11.493-22.722 22.181-3.32 13.308-8.088 31.145-11.384 38.039-3.902 8.16-23.326 24.255-34.465 33.054 7.094-4.53 15.496-7.172 24.491-7.172z" fill="#d8560b" data-original="#8c808a" style="" class=""/><path d="m342.992 75.472h-203.875c-7.619 8.396-20.697 19.152-29.083 25.777 7.094-4.531 15.496-7.172 24.491-7.172h213.059c8.994 0 17.397 2.642 24.49 7.172-8.385-6.625-21.463-17.382-29.082-25.777z" fill="#de911e" data-original="#7b7179" style="" class=""/><path d="m347.584 417.923h-213.059c-8.995 0-17.397-2.642-24.491-7.172 11.139 8.8 30.563 24.894 34.465 33.054 3.296 6.894 8.064 24.73 11.384 38.039 2.666 10.689 11.374 19.158 22.722 22.182 14.3 3.811 35.981 7.974 62.449 7.974 26.469 0 48.149-4.164 62.45-7.974 11.348-3.024 20.056-11.493 22.722-22.182 3.32-13.308 8.087-31.145 11.384-38.039 3.902-8.16 23.326-24.254 34.464-33.054-7.094 4.531-15.496 7.172-24.49 7.172z" fill="#d8560b" data-original="#8c808a" style="" class=""/><path d="m139.117 436.528h203.875c7.619-8.395 20.697-19.152 29.082-25.777-7.094 4.531-15.496 7.172-24.49 7.172h-213.059c-8.995 0-17.397-2.642-24.491-7.172 8.385 6.625 21.464 17.382 29.083 25.777z" fill="#de911e" data-original="#7b7179" style="" class=""/><path d="m331.464 363.362h-180.724c-4.268 0-7.727-3.459-7.727-7.727s3.459-7.727 7.727-7.727h180.724c4.268 0 7.727 3.459 7.727 7.727s-3.459 7.727-7.727 7.727z" fill="#d8560b" data-original="#8c808a" style="" class=""/><path d="m225.709 347.908h-74.969c-4.268 0-7.727 3.459-7.727 7.727s3.459 7.727 7.727 7.727h74.969z" fill="#ff4755" data-original="#ff4755" style=""/><ellipse cx="225.709" cy="355.957" fill="#ffc265" rx="18.492" ry="18.492" transform="matrix(.16 -.987 .987 .16 -161.806 521.733)" data-original="#ffc265" style=""/><path d="m225.709 355.844c-6.817 0-12.757-3.699-15.964-9.19-1.597 2.735-2.529 5.907-2.529 9.303 0 10.213 8.279 18.492 18.492 18.492s18.492-8.279 18.492-18.492c0-3.396-.931-6.568-2.529-9.303-3.205 5.491-9.145 9.19-15.962 9.19z" fill="#ffb541" data-original="#ffb541" style=""/><g><g fill="#ffc265"><path d="m229.107 302.655v-25.211c0-4.282-3.47-7.752-7.752-7.752s-7.752 3.47-7.752 7.752v25.211c0 4.282 3.47 7.752 7.752 7.752 4.282.001 7.752-3.47 7.752-7.752z" fill="#ffc265" data-original="#ffc265" style=""/><path d="m170.554 302.655v-25.211c0-4.282-3.47-7.752-7.752-7.752s-7.752 3.47-7.752 7.752v25.211c0 4.282 3.47 7.752 7.752 7.752 4.282.001 7.752-3.47 7.752-7.752z" fill="#ffc265" data-original="#ffc265" style=""/><path d="m200.051 302.655v-43.833c0-4.282-3.47-7.752-7.752-7.752s-7.752 3.47-7.752 7.752v43.833c0 4.282 3.47 7.752 7.752 7.752 4.282.001 7.752-3.47 7.752-7.752z" fill="#ffc265" data-original="#ffc265" style=""/><path d="m255.415 302.655v-56.451c0-4.282-3.47-7.752-7.752-7.752s-7.752 3.47-7.752 7.752v56.451c0 4.282 3.47 7.752 7.752 7.752 4.281.001 7.752-3.47 7.752-7.752z" fill="#ffc265" data-original="#ffc265" style=""/><path d="m281.722 302.655v-56.451c0-4.282-3.47-7.752-7.752-7.752s-7.752 3.47-7.752 7.752v56.451c0 4.282 3.47 7.752 7.752 7.752 4.282.001 7.752-3.47 7.752-7.752z" fill="#ffc265" data-original="#ffc265" style=""/><path d="m308.03 302.655v-25.211c0-4.282-3.47-7.752-7.752-7.752s-7.752 3.47-7.752 7.752v25.211c0 4.282 3.47 7.752 7.752 7.752s7.752-3.47 7.752-7.752z" fill="#ffc265" data-original="#ffc265" style=""/><path d="m334.338 302.655v-42.202c0-4.282-3.47-7.752-7.752-7.752s-7.752 3.47-7.752 7.752v42.202c0 4.282 3.47 7.752 7.752 7.752 4.282.001 7.752-3.47 7.752-7.752z" fill="#ffc265" data-original="#ffc265" style=""/></g><path d="m271.607 135.771-46.363 4.536c-6.501.636-11.405 6.041-11.405 12.574v31.572c-1.037-.184-2.097-.303-3.186-.31-.038 0-.076 0-.114 0-10.315 0-18.738 8.361-18.8 18.69-.061 10.367 8.322 18.852 18.69 18.914h.114c10.056 0 18.291-7.951 18.756-17.92.027-.259.044-.555.044-.815v-47.527l40.624-3.975v27.451c-1.037-.184-2.097-.303-3.186-.31-.038 0-.076 0-.114 0-10.315 0-18.738 8.361-18.8 18.689-.062 10.294 8.509 18.915 18.803 18.915 10.057 0 18.292-7.952 18.757-17.921.027-.258.043-.556.043-.815v-49.173c.002-7.345-6.546-13.301-13.863-12.575z" fill="#ff4755" data-original="#ff4755" style=""/></g></g></g></svg>
