<svg height="512" viewBox="0 0 512 512" width="512" xmlns="http://www.w3.org/2000/svg"><g id="flat"><rect fill="#fd9226" height="198" rx="99" width="288" x="112" y="285.5"/><path d="m256 488a81 81 0 0 1 -81-81v-54c0-44.735 36.265-72 81-72 44.735 0 81 27.265 81 72v54a81 81 0 0 1 -81 81z" fill="#fdb15e"/><g fill="#dc651e"><circle cx="192" cy="360" r="32"/><circle cx="320" cy="360" r="32"/><rect height="24" rx="12" width="80" x="216" y="425"/><path d="m249.969 377.042-8.922 11.9a7.54 7.54 0 0 0 6.032 12.058h17.842a7.54 7.54 0 0 0 6.032-12.063l-8.922-11.9a7.538 7.538 0 0 0 -12.062.005z"/></g><path d="m409.6 267.2a96 96 0 0 0 -49.364-18.838l-.236-.362-16-48-40-152-88-24-128 40-32 48 16 72h24l16-64 48-16 32 16-24 80-16.113 48.35a96 96 0 0 0 -49.487 18.85l-38.4 28.8 155.083 12.924a444.625 444.625 0 0 0 73.834 0l155.083-12.924z" fill="#bb5a8f"/><path d="m192 121.333 8-25.333-40 8z" fill="#7a4771"/><path d="m360.004 248h-208l16-48h176z" fill="#7a4771"/><path d="m288 256h-64a8 8 0 0 1 -8-8v-48a8 8 0 0 1 8-8h64a8 8 0 0 1 8 8v48a8 8 0 0 1 -8 8zm-56-16h48v-32h-48z" fill="#ea9d2d"/></g></svg>