<svg id="Layer_1" enable-background="new 0 0 512 512" height="512" viewBox="0 0 512 512" width="512" xmlns="http://www.w3.org/2000/svg"><path d="m310.115 8.836v293.262c0 4.646-3.76 8.417-8.406 8.417h-293.292c-4.646 0-8.417-3.77-8.417-8.417v-293.262c0-4.646 3.77-8.406 8.417-8.406h293.293c4.645 0 8.405 3.76 8.405 8.406z" fill="#cfb2ed"/><path d="m151.349 271.367h-106.876c-4.648 0-8.417-3.768-8.417-8.417v-262.52h-27.639c-4.649 0-8.417 3.768-8.417 8.416v293.251c0 4.648 3.768 8.417 8.416 8.417h151.262 142.031c4.643 0 8.406-3.764 8.406-8.406v-30.741-117.018c-64.884 3.696-119.382 46.126-140.766 104.517-2.758 7.533-9.978 12.501-18 12.501z" fill="#bf98e6"/><path d="m0 204.71v-195.879c0-4.646 3.771-8.406 8.417-8.406h197.287c1.837 111.922-91.255 206.467-205.704 204.285z" fill="#fed22b"/><path d="m176.275 236.245c-4.077-1.265-8.404 1.015-9.669 5.091l-5.914 19.068c-1.264 4.075 1.016 8.404 5.091 9.669 4.073 1.264 8.404-1.014 9.669-5.091l5.914-19.068c1.264-4.076-1.016-8.405-5.091-9.669z" fill="#fed22b"/><path d="m253.261 180.358c-3.419-2.554-8.26-1.853-10.814 1.565l-11.949 15.994c-3.827 5.123-.102 12.351 6.184 12.351 2.354 0 4.679-1.072 6.196-3.103l11.949-15.994c2.553-3.418 1.852-8.259-1.566-10.813z" fill="#fed22b"/><path d="m176.996 182.84-19.391 4.755c-4.144 1.016-6.68 5.2-5.664 9.344 1.015 4.14 5.194 6.681 9.344 5.664l19.391-4.755c4.144-1.016 6.68-5.2 5.664-9.344s-5.202-6.68-9.344-5.664z" fill="#eb5793"/><path d="m269.797 116.123-14.578-13.642c-3.115-2.917-8.006-2.754-10.921.362s-2.754 8.005.362 10.921c15.637 14.633 15.879 15.727 19.855 15.727 6.977 0 10.39-8.588 5.282-13.368z" fill="#fed22b"/><path d="m253.908 59.886c.534 4.222 4.39 7.231 8.636 6.694 4.233-.536 7.23-4.402 6.694-8.636l-2.508-19.806c-.535-4.234-4.397-7.23-8.636-6.694-4.233.536-7.23 4.402-6.694 8.636z" fill="#eb5793"/><path d="m106.86 250.312c-3.116-2.916-8.005-2.754-10.921.362-2.915 3.116-2.754 8.005.362 10.921l14.577 13.642c3.114 2.915 8.003 2.755 10.921-.362 2.915-3.116 2.754-8.005-.362-10.921z" fill="#eb5793"/><path d="m55.651 232.975c-3.579-2.318-8.364-1.298-10.686 2.283l-10.855 16.755c-3.345 5.162.414 11.929 6.477 11.929 2.531 0 5.012-1.243 6.491-3.526l10.856-16.755c2.321-3.582 1.298-8.366-2.283-10.686z" fill="#fed22b"/><path d="m512 351.887c0 2.586-.062 5.161-.185 7.726-3.904 82.044-69.733 147.862-151.777 151.766-2.565.124-5.141.185-7.726.185s-5.161-.062-7.726-.185c-82.054-3.904-147.882-69.723-151.787-151.766-.124-2.565-.185-5.141-.185-7.726 0-2.586.062-5.161.185-7.726 3.904-82.033 69.733-147.862 151.787-151.766 2.565-.124 5.141-.185 7.726-.185s5.161.062 7.726.185c82.044 3.904 147.872 69.733 151.777 151.766.123 2.564.185 5.14.185 7.726z" fill="#eb5793"/><path d="m36.056.43v201.74c-11.703 1.896-23.756 2.782-36.056 2.545v-195.879c0-2.473 1.061-4.687 2.751-6.222.206-.186.412-.35.628-.515s.443-.309.67-.453c.35-.206.711-.402 1.092-.556.258-.103.515-.196.773-.278.792-.248 1.637-.382 2.503-.382z" fill="#fdc202"/><path d="m147.481 74.438c-2.318 4.615-4.862 9.097-7.613 13.454-12.888 20.459-30.308 37.952-50.922 50.932-4.347 2.751-8.829 5.285-13.454 7.613-22.551 11.343-48.192 17.586-75.492 17.071v-154.672c0-4.646 3.77-8.406 8.417-8.406h156.072c.433 26.383-5.718 51.612-17.008 74.008z" fill="#fdc202"/><path d="m36.056.43v159.75c-11.59 2.4-23.653 3.564-36.056 3.327v-154.671c0-4.645 3.754-8.406 8.417-8.406z" fill="#f0a70a"/><path d="m139.868 87.892-118.997-67.847 68.074 118.78c-4.347 2.751-8.829 5.285-13.454 7.613l-75.491-131.73v-5.872c0-4.646 3.77-8.406 8.417-8.406h9.261l129.803 74.008c-2.318 4.615-4.863 9.097-7.613 13.454z" fill="#e38803"/><path d="m370.34 510.555c-92.416 10.361-173.189-59.494-177.541-150.942-4.727-98.098 79.382-177.404 177.541-166.395-77.202 8.664-137.745 72.37-141.485 150.942-4.079 84.646 58.485 157.08 141.485 166.395z" fill="#e7387f"/><path d="m352.307 351.892-35.525-67.574c-7.41-14.095-26.081-17.501-37.991-6.929-12.969 11.512-10.218 32.478 5.28 40.257z" fill="#fed22b"/><path d="m352.239 351.892 35.525-67.574c7.41-14.095 26.081-17.501 37.991-6.929 12.969 11.512 10.218 32.478-5.28 40.257z" fill="#fed22b"/><path d="m445.715 426-87.825-79.426c-3.029-3.191-8.167-3.228-11.234-.001l-87.825 79.427c-5.251 4.747-1.841 13.457 5.184 13.457 4.239 0-1.632 4.164 88.258-77.129 90.007 81.4 84.028 77.129 88.258 77.129 7.023 0 10.437-8.707 5.184-13.457z" fill="#fed22b"/><g fill="#dfcbf3"><circle cx="388.711" cy="235.996" r="11.333"/><circle cx="315.904" cy="234.966" r="11.333"/><circle cx="234.513" cy="312.23" r="11.333"/><circle cx="470.102" cy="312.23" r="11.333"/><circle cx="315.904" cy="467.787" r="11.333"/><circle cx="388.711" cy="468.817" r="11.333"/><circle cx="470.102" cy="391.554" r="11.333"/><circle cx="234.513" cy="391.554" r="11.333"/></g><path d="m512 351.887c0 2.586-.062 5.161-.185 7.726h-151.777v151.766c-2.565.124-5.141.185-7.726.185s-5.161-.062-7.726-.185v-151.766h-151.788c-.124-2.565-.185-5.141-.185-7.726 0-2.586.062-5.161.185-7.726h151.787v-151.767c2.565-.124 5.141-.185 7.726-.185s5.161.062 7.726.185v151.766h151.777c.124 2.565.186 5.141.186 7.727z" fill="#fed22b"/><path d="m370.34 193.218c-8.436-.957-17.164-1.238-25.755-.824v5.893c8.331-2.381 16.993-4.081 25.755-5.069z" fill="#f0a70a"/><path d="m192.798 344.16c-.252 5.227-.243 10.405 0 15.453h36.046c-.237-5.099-.237-10.25.01-15.453z" fill="#f0a70a"/><path d="m344.585 505.497v5.882c8.81.422 17.525.109 25.755-.824-8.888-1.002-17.476-2.71-25.755-5.058z" fill="#f0a70a"/><path d="m360.038 192.394v2.328c3.41-.618 6.851-1.113 10.302-1.504-3.4-.381-6.841-.659-10.302-.824z" fill="#e7387f"/><path d="m360.038 511.379c3.503-.165 6.943-.443 10.302-.824-3.482-.391-6.923-.896-10.302-1.504z" fill="#e7387f"/></svg>