<?xml version="1.0"?>
<svg xmlns="http://www.w3.org/2000/svg" xmlns:xlink="http://www.w3.org/1999/xlink" xmlns:svgjs="http://svgjs.com/svgjs" version="1.1" width="512" height="512" x="0" y="0" viewBox="0 0 512 512" style="enable-background:new 0 0 512 512" xml:space="preserve" class=""><g>
<g xmlns="http://www.w3.org/2000/svg">
	<g>
		<g>
			<path d="M416,384c-35.346,0-64,28.654-64,64c0,35.346,28.654,64,64,64c35.346,0,64-28.654,64-64C480,412.654,451.346,384,416,384     z M416,480c-17.673,0-32-14.327-32-32c0-17.673,14.327-32,32-32c17.673,0,32,14.327,32,32C448,465.673,433.673,480,416,480z" fill="#b60d0d" data-original="#000000" style="" class=""/>
			<path d="M160,384c-35.346,0-64,28.654-64,64c0,35.346,28.654,64,64,64c35.346,0,64-28.654,64-64C224,412.654,195.346,384,160,384     z M160,480c-17.673,0-32-14.327-32-32c0-17.673,14.327-32,32-32s32,14.327,32,32C192,465.673,177.673,480,160,480z" fill="#b60d0d" data-original="#000000" style="" class=""/>
			<path d="M416,352c26.51,0,48-21.49,48-48v-64h-32v64c0,8.837-7.163,16-16,16s-16-7.163-16-16V48c0-8.837,7.163-16,16-16     s16,7.163,16,16v32h32V48c0-26.51-21.49-48-48-48c-26.51,0-48,21.49-48,48v256C368,330.51,389.49,352,416,352z" fill="#b60d0d" data-original="#000000" style="" class=""/>
			<path d="M176,0C96.508,0.088,32.088,64.508,32,144c0,26.51,21.49,48,48,48s48-21.49,48-48s21.49-48,48-48c26.51,0,48,21.49,48,48     v16c0,17.673-14.327,32-32,32h-32c-26.51,0-48,21.49-48,48v64c0,26.51,21.49,48,48,48c26.51,0,48-21.49,48-48v-16.992     C271.955,278.85,319.907,224.473,320,160v-16C319.912,64.508,255.492,0.088,176,0z M288,160c-0.053,52.997-43.003,95.947-96,96     h-16v48c0,8.837-7.163,16-16,16s-16-7.163-16-16v-64c0-8.837,7.163-16,16-16h32c35.346,0,64-28.654,64-64v-16     c0-44.183-35.817-80-80-80s-80,35.817-80,80c0,8.837-7.163,16-16,16s-16-7.163-16-16c0-61.856,50.144-112,112-112     s112,50.144,112,112V160z" fill="#b60d0d" data-original="#000000" style="" class=""/>
			<rect x="432" y="112" width="32" height="32" fill="#b60d0d" data-original="#000000" style="" class=""/>
			<rect x="432" y="176" width="32" height="32" fill="#b60d0d" data-original="#000000" style="" class=""/>
		</g>
	</g>
</g>
<g xmlns="http://www.w3.org/2000/svg">
</g>
<g xmlns="http://www.w3.org/2000/svg">
</g>
<g xmlns="http://www.w3.org/2000/svg">
</g>
<g xmlns="http://www.w3.org/2000/svg">
</g>
<g xmlns="http://www.w3.org/2000/svg">
</g>
<g xmlns="http://www.w3.org/2000/svg">
</g>
<g xmlns="http://www.w3.org/2000/svg">
</g>
<g xmlns="http://www.w3.org/2000/svg">
</g>
<g xmlns="http://www.w3.org/2000/svg">
</g>
<g xmlns="http://www.w3.org/2000/svg">
</g>
<g xmlns="http://www.w3.org/2000/svg">
</g>
<g xmlns="http://www.w3.org/2000/svg">
</g>
<g xmlns="http://www.w3.org/2000/svg">
</g>
<g xmlns="http://www.w3.org/2000/svg">
</g>
<g xmlns="http://www.w3.org/2000/svg">
</g>
</g></svg>
