<svg id="Layer_1" enable-background="new 0 0 256 256" height="512" viewBox="0 0 256 256" width="512" xmlns="http://www.w3.org/2000/svg"><path d="m198.901 231.178h-141.802v-3.854c0-4.888 3.962-8.85 8.85-8.85h124.102c4.888 0 8.85 3.962 8.85 8.85z" fill="#ff4397"/><path d="m190.051 218.474h-10c4.888 0 8.85 3.962 8.85 8.85v3.855h10v-3.855c0-4.888-3.962-8.85-8.85-8.85z" fill="#e12579"/><path d="m65.949 218.474h10c-4.888 0-8.85 3.962-8.85 8.85v3.855h-10v-3.855c0-4.888 3.962-8.85 8.85-8.85z" fill="#ff61b5"/><path d="m100.402 175.077h55.196l9.213 43.397h-73.623z" fill="#e12579"/><path d="m198.901 233.178h-141.802c-1.104 0-2-.896-2-2v-3.854c0-5.983 4.867-10.851 10.85-10.851h124.102c5.983 0 10.851 4.867 10.851 10.851v3.854c-.001 1.104-.896 2-2.001 2zm-139.802-4h137.802v-1.854c0-3.777-3.073-6.851-6.851-6.851h-124.101c-3.777 0-6.85 3.073-6.85 6.851z" fill="#690589"/><path d="m164.811 220.474h-73.623c-.603 0-1.174-.272-1.554-.741s-.527-1.084-.402-1.674l9.214-43.396c.196-.924 1.012-1.585 1.956-1.585h55.195c.944 0 1.76.661 1.956 1.585l9.214 43.396c.126.59-.022 1.205-.402 1.674-.379.468-.95.741-1.554.741zm-71.153-4h68.685l-8.365-39.396h-51.955z" fill="#690589"/><path d="m243.15 184.318h-230.3c-4.888 0-8.85-3.962-8.85-8.85v-141.796c0-4.888 3.962-8.85 8.85-8.85h230.3c4.888 0 8.85 3.962 8.85 8.85v141.796c0 4.888-3.962 8.85-8.85 8.85z" fill="#f4efed"/><path d="m131.112 66.566c-3.673 3.673-4.872 8.871-3.625 13.552 4.682 1.247 9.88.048 13.553-3.625s4.872-8.871 3.625-13.553c-4.682-1.246-9.881-.047-13.553 3.626z" fill="#f4efed"/><path d="m158.357 121.381c-8.493 0-15.379-6.885-15.379-15.379 0-6.686 4.275-12.36 10.234-14.478-5.831-5.263-13.404-4.41-18.568-2.859-3.791 1.139-7.809 1.139-11.6 0-7.075-2.126-18.676-2.955-24.117 11.484-5.644 14.978 2.43 30.197 9.671 39.564 3.979 5.147 11.213 6.454 16.817 3.148l1.804-1.064c1.003-.592 2.248-.592 3.251 0l1.804 1.064c5.604 3.306 12.838 1.999 16.816-3.148 3.74-4.839 7.698-11.241 9.877-18.363-.204.008-.404.031-.61.031z" fill="#f4efed"/><path d="m243.15 24.822h-10c4.888 0 8.85 3.962 8.85 8.85v141.796c0 4.888-3.962 8.85-8.85 8.85h10c4.888 0 8.85-3.962 8.85-8.85v-141.796c0-4.888-3.962-8.85-8.85-8.85z" fill="#d6d1cf"/><path d="m12.85 184.318h10c-4.888 0-8.85-3.962-8.85-8.85v-141.796c0-4.888 3.962-8.85 8.85-8.85h-10c-4.888 0-8.85 3.962-8.85 8.85v141.796c0 4.888 3.962 8.85 8.85 8.85z" fill="#fff"/><g fill="#690589"><path d="m12 62.026c-1.105 0-2-.896-2-2v-12c0-1.104.895-2 2-2 1.104 0 2 .896 2 2v12c0 1.105-.896 2-2 2z"/><path d="m243.15 186.318h-230.3c-5.983 0-10.85-4.867-10.85-10.851v-141.795c0-5.982 4.867-10.85 10.85-10.85h230.3c5.982 0 10.85 4.867 10.85 10.85v141.796c0 5.983-4.867 10.85-10.85 10.85zm-230.3-159.496c-3.777 0-6.85 3.072-6.85 6.85v141.796c0 3.777 3.073 6.851 6.85 6.851h230.3c3.777 0 6.85-3.073 6.85-6.851v-141.796c0-3.777-3.072-6.85-6.85-6.85z"/><path d="m131.099 82.591c-1.378 0-2.764-.177-4.126-.54-.692-.185-1.233-.726-1.418-1.418-1.471-5.521.117-11.454 4.143-15.481 4.026-4.026 9.958-5.614 15.481-4.143.692.185 1.233.726 1.418 1.418 1.471 5.522-.116 11.454-4.143 15.481-3.033 3.033-7.149 4.683-11.355 4.683zm-1.929-4.155c3.797.616 7.717-.617 10.456-3.355 2.738-2.739 3.973-6.656 3.355-10.456-3.802-.615-7.717.617-10.456 3.355-2.738 2.74-3.972 6.657-3.355 10.456z"/><path d="m138.903 146.674c-2.612 0-5.254-.679-7.646-2.09l-1.804-1.064c-.375-.223-.843-.223-1.218 0l-1.805 1.064c-6.497 3.834-14.844 2.266-19.415-3.648-6.426-8.314-16.265-24.76-9.959-41.492 4.447-11.804 14.129-16.432 26.563-12.694 3.419 1.027 7.032 1.027 10.449 0 5.764-1.732 13.997-2.567 20.484 3.289.523.472.759 1.184.622 1.874-.138.691-.628 1.259-1.292 1.495-5.326 1.894-8.904 6.954-8.904 12.594 0 7.377 6.001 13.379 13.378 13.379.077 0 .152-.007.228-.012l.308-.019c.654-.027 1.266.266 1.661.779s.517 1.186.327 1.805c-2.426 7.929-6.891 14.71-10.208 19.001-2.888 3.738-7.283 5.739-11.769 5.739zm-10.059-7.32c.914 0 1.827.24 2.642.721l1.804 1.064c4.768 2.811 10.879 1.672 14.218-2.648 2.757-3.567 6.354-8.951 8.703-15.241-8.574-1.061-15.232-8.391-15.232-17.247 0-6.114 3.235-11.704 8.324-14.817-4.654-2.526-10.069-1.81-14.083-.604-4.171 1.254-8.58 1.254-12.751 0-7.294-2.189-16.974-2.188-21.669 10.274-5.62 14.914 3.465 29.981 9.381 37.636 3.341 4.319 9.452 5.458 14.218 2.648l1.804-1.064c.814-.482 1.728-.722 2.641-.722z"/></g></svg>