<svg height="512" viewBox="0 0 128 128" width="512" xmlns="http://www.w3.org/2000/svg"><g id="number"><text fill="#24253a" font-family="MyriadPro-Regular, Myriad Pro" font-size="40" letter-spacing=".002em" transform="translate(53.681 -738.265)">1<tspan x="-10.3" y="228">11</tspan><tspan x="-10.3" y="456">21</tspan><tspan x="-10.3" y="684">31</tspan><tspan x="-10.3" y="912">41</tspan><tspan x="-10.3" y="1140">51</tspan><tspan x="-10.3" y="1368">61</tspan><tspan x="-10.3" y="1596">71</tspan><tspan x="-10.3" y="1824">81</tspan><tspan x="-10.3" y="2052">91</tspan><tspan x="-20.599" y="2280">101</tspan><tspan x="-20.599" y="2508">111</tspan><tspan x="-20.599" y="2736">121</tspan><tspan x="-20.599" y="2964">131</tspan><tspan x="-20.599" y="3192">141</tspan><tspan x="-20.599" y="3420">151</tspan><tspan x="-20.599" y="3648">161</tspan><tspan x="-20.599" y="3876">171</tspan><tspan x="-20.599" y="4104">181</tspan><tspan x="-20.599" y="4332">191</tspan><tspan x="-20.599" y="4560">201</tspan><tspan x="-20.599" y="4788">211</tspan><tspan x="-20.599" y="5016">221</tspan><tspan x="-20.599" y="5244">231</tspan><tspan x="-20.599" y="5472">241</tspan></text></g><g id="icon"><rect fill="#f0f5f9" height="120.27" rx="6.695" width="111.534" x="8.233" y="1.004"/><path d="m119.767 7.7v106.873a6.7 6.7 0 0 1 -6.688 6.7h-98.149a6.7 6.7 0 0 1 -6.56-5.344h98.244a6.685 6.685 0 0 0 6.688-6.688v-106.881a6.324 6.324 0 0 0 -.143-1.36 6.7 6.7 0 0 1 6.608 6.7z" fill="#d9e2e9"/><path d="m113.072 122.274h-98.144a7.7 7.7 0 0 1 -7.7-7.7v-106.874a7.7 7.7 0 0 1 7.7-7.7h98.144a7.7 7.7 0 0 1 7.7 7.7v106.879a7.7 7.7 0 0 1 -7.7 7.695zm-98.144-120.274a5.7 5.7 0 0 0 -5.7 5.7v106.879a5.7 5.7 0 0 0 5.7 5.7h98.144a5.7 5.7 0 0 0 5.7-5.7v-106.879a5.7 5.7 0 0 0 -5.7-5.7z" fill="#2f3a5a"/><circle cx="64" cy="76.781" fill="#c8cbd2" r="32.877"/><path d="m64 110.659a33.877 33.877 0 1 1 33.877-33.878 33.916 33.916 0 0 1 -33.877 33.878zm0-65.759a31.877 31.877 0 1 0 31.877 31.881 31.913 31.913 0 0 0 -31.877-31.881z" fill="#2f3a5a"/><path d="m119.767 28.527v-20.827a6.7 6.7 0 0 0 -6.7-6.7h-98.139a6.7 6.7 0 0 0 -6.7 6.7v20.827z" fill="#9297ab"/><path d="m119.767 7.7v20.821h-6.152v-20.821a6.7 6.7 0 0 0 -6.689-6.7h6.152a6.7 6.7 0 0 1 6.689 6.7z" fill="#84879c"/><path d="m119.767 29.527h-111.534a1 1 0 0 1 -1-1v-20.827a7.7 7.7 0 0 1 7.7-7.7h98.144a7.7 7.7 0 0 1 7.7 7.7v20.827a1 1 0 0 1 -1.01 1zm-110.534-2h109.534v-19.827a5.7 5.7 0 0 0 -5.7-5.7h-98.139a5.7 5.7 0 0 0 -5.7 5.7z" fill="#2f3a5a"/><circle cx="64" cy="76.781" fill="#f0f5f9" r="24.441"/><path d="m39.582 77.232a24.422 24.422 0 0 0 48.836 0z" fill="#8ae0a1"/><path d="m64 102.222a25.44 25.44 0 1 1 25.44-25.44 25.469 25.469 0 0 1 -25.44 25.44zm0-48.881a23.44 23.44 0 1 0 23.44 23.44 23.467 23.467 0 0 0 -23.44-23.44z" fill="#2f3a5a"/><circle cx="102.793" cy="14.766" fill="#d9e2e9" r="4.643"/><path d="m102.793 20.409a5.643 5.643 0 1 1 5.644-5.643 5.649 5.649 0 0 1 -5.644 5.643zm0-9.287a3.643 3.643 0 1 0 3.644 3.644 3.647 3.647 0 0 0 -3.644-3.644z" fill="#2f3a5a"/><circle cx="86.711" cy="14.766" fill="#d9e2e9" r="4.643"/><path d="m86.711 20.409a5.643 5.643 0 1 1 5.644-5.643 5.649 5.649 0 0 1 -5.644 5.643zm0-9.287a3.643 3.643 0 1 0 3.644 3.644 3.647 3.647 0 0 0 -3.644-3.644z" fill="#2f3a5a"/><circle cx="70.629" cy="14.766" fill="#d9e2e9" r="4.643"/><path d="m70.629 20.409a5.643 5.643 0 1 1 5.644-5.643 5.65 5.65 0 0 1 -5.644 5.643zm0-9.287a3.643 3.643 0 1 0 3.644 3.644 3.647 3.647 0 0 0 -3.644-3.644z" fill="#2f3a5a"/><path d="m19.167 9.403h28.034v10.725h-28.034z" fill="#c8cbd2"/><path d="m111.706 127h-6.949l-1.6-5.726h10.149z" fill="#c8cbd2"/><path d="m111.706 128h-6.949a1 1 0 0 1 -.963-.731l-1.6-5.726a1 1 0 0 1 .963-1.269h10.149a1 1 0 0 1 .963 1.269l-1.6 5.726a1 1 0 0 1 -.963.731zm-6.19-2h5.431l1.041-3.726h-7.513z" fill="#2f3a5a"/><path d="m23.243 127h-6.949l-1.6-5.726h10.149z" fill="#c8cbd2"/><path d="m23.243 128h-6.949a1 1 0 0 1 -.963-.731l-1.6-5.726a1 1 0 0 1 .963-1.269h10.149a1 1 0 0 1 .963 1.269l-1.6 5.726a1 1 0 0 1 -.963.731zm-6.19-2h5.431l1.041-3.726h-7.513z" fill="#2f3a5a"/></g></svg>