<?xml version="1.0" encoding="iso-8859-1"?>
<!-- Generator: Adobe Illustrator 19.0.0, SVG Export Plug-In . SVG Version: 6.00 Build 0)  -->
<svg version="1.1" id="Capa_1" xmlns="http://www.w3.org/2000/svg" xmlns:xlink="http://www.w3.org/1999/xlink" x="0px" y="0px"
	 viewBox="0 0 512 512" style="enable-background:new 0 0 512 512;" xml:space="preserve">
<path style="fill:#E1D8DC;" d="M320,188H192V36c0-4.418,3.582-8,8-8h112c4.418,0,8,3.582,8,8V188z"/>
<path style="fill:#D2C5CA;" d="M232,28h-32c-4.418,0-8,3.582-8,8v152h32V36C224,31.582,227.582,28,232,28z"/>
<polygon style="fill:#F0ECED;" points="320,188 512,284 0,284 192,188 "/>
<g>
	<polygon style="fill:#E1D8DC;" points="192,188 0,284 32,284 224,188 	"/>
	<path style="fill:#E1D8DC;" d="M504,396H8c-4.418,0-8-3.582-8-8V284h512v104C512,392.418,508.418,396,504,396z"/>
</g>
<path style="fill:#D2C5CA;" d="M32,388V284H0v104c0,4.418,3.582,8,8,8h32C35.582,396,32,392.418,32,388z"/>
<g>
	<path style="fill:#B49EA7;" d="M256,372c-4.418,0-8-3.582-8-8v-48c0-4.418,3.582-8,8-8s8,3.582,8,8v48
		C264,368.418,260.418,372,256,372z"/>
	<path style="fill:#B49EA7;" d="M288,372c-4.418,0-8-3.582-8-8v-48c0-4.418,3.582-8,8-8s8,3.582,8,8v48
		C296,368.418,292.418,372,288,372z"/>
	<path style="fill:#B49EA7;" d="M224,372c-4.418,0-8-3.582-8-8v-48c0-4.418,3.582-8,8-8s8,3.582,8,8v48
		C232,368.418,228.418,372,224,372z"/>
</g>
<rect x="128" y="324" style="fill:#99D7C7;" width="64" height="32"/>
<path style="fill:#876471;" d="M192,364h-64c-4.418,0-8-3.582-8-8v-32c0-4.418,3.582-8,8-8h64c4.418,0,8,3.582,8,8v32
	C200,360.418,196.418,364,192,364z M136,348h48v-16h-48V348z"/>
<rect x="320" y="324" style="fill:#99D7C7;" width="64" height="32"/>
<path style="fill:#876471;" d="M384,364h-64c-4.418,0-8-3.582-8-8v-32c0-4.418,3.582-8,8-8h64c4.418,0,8,3.582,8,8v32
	C392,360.418,388.418,364,384,364z M328,348h48v-16h-48V348z"/>
<circle style="fill:#EA9174;" cx="432" cy="340" r="16"/>
<path style="fill:#E36D45;" d="M432,364c-13.234,0-24-10.767-24-24s10.766-24,24-24s24,10.767,24,24S445.234,364,432,364z M432,332
	c-4.411,0-8,3.589-8,8s3.589,8,8,8s8-3.589,8-8S436.411,332,432,332z"/>
<circle style="fill:#EA9174;" cx="88" cy="340" r="16"/>
<path style="fill:#E36D45;" d="M88,364c-13.234,0-24-10.767-24-24s10.766-24,24-24s24,10.767,24,24S101.234,364,88,364z M88,332
	c-4.411,0-8,3.589-8,8s3.589,8,8,8s8-3.589,8-8S92.411,332,88,332z"/>
<g>
	<path style="fill:#FFD29A;" d="M256,484c-2.047,0-4.095-0.781-5.657-2.343c-4.998-4.998-7.409-9.902-7.374-14.996
		c0.051-7.268,4.975-12.056,8.932-15.903c2.509-2.44,5.103-4.963,5.117-6.869c0.007-1.062-0.628-4.185-6.675-10.231
		c-3.125-3.125-3.125-8.189,0-11.314c3.124-3.123,8.189-3.123,11.313,0c7.693,7.693,11.409,14.777,11.361,21.658
		c-0.06,8.599-5.783,14.164-9.962,18.228c-1.383,1.345-3.665,3.563-4.065,4.571c0.103,0.32,0.586,1.464,2.666,3.543
		c3.125,3.125,3.125,8.189,0,11.314C260.095,483.219,258.047,484,256,484z"/>
	<path style="fill:#FFD29A;" d="M213.031,484c-2.047,0-4.095-0.781-5.657-2.343c-4.998-4.998-7.409-9.902-7.374-14.996
		c0.051-7.268,4.975-12.056,8.932-15.903c2.509-2.44,5.103-4.963,5.117-6.869c0.007-1.062-0.628-4.185-6.675-10.231
		c-3.125-3.125-3.125-8.189,0-11.314c3.124-3.123,8.189-3.123,11.313,0c7.693,7.693,11.409,14.777,11.361,21.658
		c-0.06,8.599-5.783,14.164-9.962,18.228c-1.383,1.345-3.665,3.563-4.065,4.571c0.103,0.32,0.586,1.464,2.666,3.543
		c3.125,3.125,3.125,8.189,0,11.314C217.125,483.219,215.078,484,213.031,484z"/>
	<path style="fill:#FFD29A;" d="M301.031,484c-2.047,0-4.095-0.781-5.657-2.343c-4.998-4.998-7.409-9.902-7.374-14.996
		c0.051-7.268,4.975-12.056,8.932-15.903c2.509-2.44,5.103-4.963,5.117-6.869c0.007-1.062-0.628-4.185-6.675-10.231
		c-3.125-3.125-3.125-8.189,0-11.314c3.124-3.123,8.189-3.123,11.313,0c7.693,7.693,11.409,14.777,11.361,21.658
		c-0.06,8.599-5.783,14.164-9.962,18.228c-1.383,1.345-3.665,3.563-4.065,4.571c0.103,0.32,0.586,1.464,2.666,3.543
		c3.125,3.125,3.125,8.189,0,11.314C305.125,483.219,303.078,484,301.031,484z"/>
</g>
<g>
</g>
<g>
</g>
<g>
</g>
<g>
</g>
<g>
</g>
<g>
</g>
<g>
</g>
<g>
</g>
<g>
</g>
<g>
</g>
<g>
</g>
<g>
</g>
<g>
</g>
<g>
</g>
<g>
</g>
</svg>
