<svg height="480pt" viewBox="-4 0 480 480" width="480pt" xmlns="http://www.w3.org/2000/svg"><path d="m256 408v-16h-160v-232h-16c-1.769531 0-3.527344.296875-5.199219.878906-.984375.3125-1.921875.742188-2.800781 1.28125v253.839844h184l1.921875-.398438c-1.253906-2.339843-1.914063-4.949218-1.921875-7.601562zm0 0" fill="#3d9ae2"/><path d="m159.359375 136h-63.359375v256h160v-256zm0 0" fill="#e6e7e8"/><path d="m96 192h-16c-.050781 10.171875 6.386719 19.242188 16 22.558594 2.554688.96875 5.265625 1.457031 8 1.441406 13.253906 0 24-10.746094 24-24zm0 0" fill="#898890"/><path d="m133.199219 160.878906c-1.671875-.582031-3.429688-.878906-5.199219-.878906h-48c-1.769531 0-3.527344.296875-5.199219.878906-.984375.3125-1.921875.742188-2.800781 1.28125-1.210938.691406-2.316406 1.554688-3.28125 2.558594-3.039062 2.964844-4.742188 7.035156-4.71875 11.28125 0 8.835938 7.164062 16 16 16h48c8.808594-.066406 15.933594-7.191406 16-16-.035156-6.816406-4.363281-12.875-10.800781-15.121094zm0 0" fill="#acabb1"/><path d="m288 392v16c0 8.835938-7.164062 16-16 16s-16-7.164062-16-16v-256h32zm0 0" fill="#ff9811"/><path d="m448 392v-239.761719h24v263.761719h-184l-1.921875-.398438c1.253906-2.339843 1.914063-4.949218 1.921875-7.601562v-16zm0 0" fill="#3d9ae2"/><path d="m288 136v256h160v-256zm0 0" fill="#e6e7e8"/><path d="m104 40c-28.957031-.015625-54.316406 19.425781-61.8125 47.398438-7.5 27.96875 4.730469 57.488281 29.8125 71.960937.878906.480469 1.839844 1.039063 2.800781 1.519531 1.671875-.582031 3.429688-.878906 5.199219-.878906h48c1.769531 0 3.527344.296875 5.199219.878906 10.9375-5.597656 20.019531-14.238281 26.160156-24.878906 5.695313-9.699219 8.679687-20.753906 8.640625-32 0-35.347656-28.652344-64-64-64zm0 0" fill="#ffd422"/><g fill="#c6c5ca"><path d="m168 192h64v16h-64zm0 0"/><path d="m120 224h112v16h-112zm0 0"/><path d="m120 256h112v16h-112zm0 0"/><path d="m120 288h112v16h-112zm0 0"/><path d="m120 320h112v16h-112zm0 0"/><path d="m376 192h48v16h-48zm0 0"/><path d="m312 192h48v16h-48zm0 0"/><path d="m312 224h112v16h-112zm0 0"/><path d="m312 256h112v16h-112zm0 0"/><path d="m312 288h112v16h-112zm0 0"/><path d="m312 320h112v16h-112zm0 0"/></g><path d="m120 128c-2.675781 0-5.171875-1.335938-6.65625-3.558594l-9.34375-14.042968-9.34375 14.015624c-1.570312 2.101563-4.035156 3.335938-6.65625 3.335938s-5.085938-1.234375-6.65625-3.335938l-16-24 13.3125-8.878906 9.34375 14.066406 9.34375-14.015624c1.570312-2.101563 4.035156-3.335938 6.65625-3.335938s5.085938 1.234375 6.65625 3.335938l9.34375 14.015624 9.34375-14.015624 13.3125 8.878906-16 24c-1.488281 2.214844-3.988281 3.539062-6.65625 3.535156zm0 0" fill="#ddb200"/><path d="m96 0h16v16h-16zm0 0" fill="#ffb655"/><path d="m24.8125 36.121094 11.3125-11.316406 11.3125 11.316406-11.3125 11.3125zm0 0" fill="#ffb655"/><path d="m0 96h16v16h-16zm0 0" fill="#ffb655"/><path d="m192 96h16v16h-16zm0 0" fill="#ffb655"/><path d="m160.566406 36.125 11.316406-11.316406 11.3125 11.316406-11.3125 11.3125zm0 0" fill="#ffb655"/><path d="m232 56h16v16h-16zm0 0" fill="#ff9811"/><path d="m264 56h16v16h-16zm0 0" fill="#ff9811"/><path d="m296 56h16v16h-16zm0 0" fill="#ff9811"/><path d="m400 112h-16v-40h-56v-16h64c4.417969 0 8 3.582031 8 8zm0 0" fill="#ff9811"/><path d="m168 480h-144c-4.417969 0-8-3.582031-8-8v-208h16v200h128v-24h16v32c0 4.417969-3.582031 8-8 8zm0 0" fill="#ff9811"/><path d="m16 232h16v16h-16zm0 0" fill="#ff9811"/><path d="m16 200h16v16h-16zm0 0" fill="#ff9811"/><path d="m16 168h16v16h-16zm0 0" fill="#ff9811"/></svg>