<?xml version="1.0"?>
<svg xmlns="http://www.w3.org/2000/svg" xmlns:xlink="http://www.w3.org/1999/xlink" width="512" height="512" viewBox="0 0 512 512"><defs><linearGradient id="a" data-name="New Gradient Swatch 1" x1="-24.53" y1="456.53" x2="487.155" y2="-55.155" gradientUnits="userSpaceOnUse"><stop offset="0" stop-color="#003f8a"/><stop offset="0.518" stop-color="#00d7df"/><stop offset="1" stop-color="#006df0"/></linearGradient><linearGradient id="b" x1="7.47" y1="488.53" x2="519.155" y2="-23.155" xlink:href="#a"/><linearGradient id="c" x1="24.506" y1="505.567" x2="536.192" y2="-6.118" xlink:href="#a"/><linearGradient id="d" x1="183.47" y1="664.53" x2="695.155" y2="152.845" xlink:href="#a"/><linearGradient id="e" x1="205.47" y1="686.53" x2="717.155" y2="174.845" xlink:href="#a"/><linearGradient id="f" x1="79.47" y1="560.53" x2="591.155" y2="48.845" xlink:href="#a"/><linearGradient id="g" x1="35.47" y1="516.53" x2="547.155" y2="4.845" xlink:href="#a"/><linearGradient id="h" x1="159.47" y1="640.53" x2="671.155" y2="128.845" xlink:href="#a"/><linearGradient id="i" x1="150.525" y1="631.586" x2="662.21" y2="119.901" xlink:href="#a"/><linearGradient id="j" x1="141.581" y1="622.642" x2="653.266" y2="110.957" xlink:href="#a"/><linearGradient id="k" x1="-136.53" y1="344.53" x2="375.155" y2="-167.155" xlink:href="#a"/><linearGradient id="l" x1="-145.475" y1="335.586" x2="366.21" y2="-176.099" xlink:href="#a"/><linearGradient id="m" x1="-154.419" y1="326.642" x2="357.266" y2="-185.043" xlink:href="#a"/></defs><g><path d="M168,248a8,8,0,0,0-8,8v16a8,8,0,0,0,16,0V256A8,8,0,0,0,168,248Z" fill="url(#a)"/><path d="M312,192H216a8,8,0,0,0-8,8v64a8,8,0,0,0,8,8h96a8,8,0,0,0,8-8V200A8,8,0,0,0,312,192Zm-88,16h32v48H224Zm80,48H272V208h32Z" fill="url(#b)"/><path d="M464,248H360V184h40a8,8,0,0,0,4.57-14.57l-184-128a8.006,8.006,0,0,0-9.14,0L174.79,66.92A71.991,71.991,0,1,0,67.13,141.81l-39.7,27.62A8,8,0,0,0,32,184H72V344a8,8,0,0,0,8,8H328V480a24.032,24.032,0,0,0,24,24H464a24.032,24.032,0,0,0,24-24V272A24.032,24.032,0,0,0,464,248Zm-35.1,16-2.67,8H389.77l-2.67-8ZM48,80a56,56,0,1,1,56,56A56.062,56.062,0,0,1,48,80Zm9.51,88,26.91-18.73a71.925,71.925,0,0,0,91.33-63.53L216,57.75,374.49,168ZM184,336H120V208h64Zm144-64v64H200V200a8,8,0,0,0-8-8H112a8,8,0,0,0-8,8V336H88V184H344v65.38A24.031,24.031,0,0,0,328,272ZM472,480a8.011,8.011,0,0,1-8,8H352a8.011,8.011,0,0,1-8-8V272a8.011,8.011,0,0,1,8-8h18.23l6.18,18.53A8,8,0,0,0,384,288h48a8,8,0,0,0,7.59-5.47L445.77,264H464a8.011,8.011,0,0,1,8,8Z" fill="url(#c)"/><path d="M392,464H360a8,8,0,0,0,0,16h32a8,8,0,0,0,0-16Z" fill="url(#d)"/><path d="M424,464h-8a8,8,0,0,0,0,16h8a8,8,0,0,0,0-16Z" fill="url(#e)"/><path d="M304,440H168V368a8,8,0,0,0-16,0v80a8,8,0,0,0,8,8H304a8,8,0,0,0,0-16Z" fill="url(#f)"/><path d="M328,96H448V232a8,8,0,0,0,16,0V88a8,8,0,0,0-8-8H328a8,8,0,0,0,0,16Z" fill="url(#g)"/><circle cx="408" cy="392" r="8" fill="url(#h)"/><path d="M397.336,380.072a16,16,0,0,1,21.328,0,8,8,0,0,0,10.672-11.922,32,32,0,0,0-42.672,0,8,8,0,1,0,10.672,11.922Z" fill="url(#i)"/><path d="M445.335,350.262a56,56,0,0,0-74.67,0,8,8,0,1,0,10.67,11.922,40,40,0,0,1,53.33,0,8,8,0,0,0,10.67-11.922Z" fill="url(#j)"/><circle cx="104" cy="104" r="8" fill="url(#k)"/><path d="M114.664,92.072A8,8,0,1,0,125.336,80.15a32,32,0,0,0-42.672,0A8,8,0,1,0,93.336,92.072a16,16,0,0,1,21.328,0Z" fill="url(#l)"/><path d="M130.665,74.184a8,8,0,1,0,10.67-11.922,56,56,0,0,0-74.67,0,8,8,0,0,0,10.67,11.922,40,40,0,0,1,53.33,0Z" fill="url(#m)"/></g></svg>
