<svg id="flat" height="512" viewBox="0 0 512 512" width="512" xmlns="http://www.w3.org/2000/svg"><path d="m344 392v64h-32l-96-96v136h-192v-144a55.99746 55.99746 0 0 1 56-56h151.42993a39.99389 39.99389 0 0 1 28.29 11.72z" fill="#8760e6"/><path d="m221.29 296a80.01387 80.01387 0 0 1 -138.58 0z" fill="#7e57df"/><path d="m320.27077 38.00923-117.89623 213.68691a19.08456 19.08456 0 0 0 -2.37454 9.21931 19.08452 19.08452 0 0 0 19.08453 19.08455h249.83094a19.08452 19.08452 0 0 0 19.08453-19.08453 19.08456 19.08456 0 0 0 -2.37454-9.21931l-117.89623-213.68693a27.10121 27.10121 0 0 0 -23.72923-14.00923 27.10121 27.10121 0 0 0 -23.72923 14.00923z" fill="#f5714f"/><path d="m216 200h-128l10.66992-32 7.86008-23.59009a24.005 24.005 0 0 1 22.77005-16.40991h45.39995a24.005 24.005 0 0 1 22.77 16.40991l7.86008 23.59009z" fill="#8760e6"/><path d="m216 200h-128l10.67-32h106.66z" fill="#7148db"/><path d="m150.02847 495.99831c-26.666.15475-52.19011-10.846-71.04614-29.702l-30.98233-30.98237a8.00014 8.00014 0 0 1 -.00025-11.31367h.00005a8.00015 8.00015 0 0 1 11.31414-.00027l31.08412 31.0841a83.83012 83.83012 0 0 0 57.84631 24.90737 81.96783 81.96783 0 0 0 33.65846-6.65358l23.59283-10.11137a7.99964 7.99964 0 0 1 10.50414 4.20172l.00047.00111a7.99964 7.99964 0 0 1 -4.20178 10.504l-23.59244 10.11065a97.82577 97.82577 0 0 1 -38.17758 7.95431z" fill="#7e57df"/><path d="m320 440-16 16-24-16-23.33008 10-40.66992 17.42993v-61.42993l24-6 28.13-7.03a32.34192 32.34192 0 0 1 24.88 3.86987 32.42266 32.42266 0 0 1 11.94 13.06003z" fill="#8760e6"/><path d="m144.00049 432a7.99978 7.99978 0 0 1 -5.65723-2.34277l-42.34326-42.34329a8.00014 8.00014 0 0 1 -.00025-11.31367 8.00015 8.00015 0 0 1 11.31419-.00027l39.14016 39.14058 59.8449-14.96118a7.99964 7.99964 0 0 1 9.70093 5.82036 7.99964 7.99964 0 0 1 -5.82053 9.70122l-64.239 16.05974a7.97221 7.97221 0 0 1 -1.93991.23928z" fill="#7e57df"/><path d="m320 440-16 16-24-16-23.33008 10-16.66992-50 28.13-7.03a32.34192 32.34192 0 0 1 24.88 3.86987 32.42266 32.42266 0 0 1 11.94 13.06003z" fill="#ffceb6"/><path d="m344 488h-96a16 16 0 0 1 -16-16v-16h112z" fill="#ffa100"/><path d="m344 336h144v152h-144z" fill="#ffc431"/><circle cx="416" cy="408" fill="#ffd873" r="16"/><circle cx="344" cy="224" fill="#ffb0a1" r="16"/><path d="m336 184h16l16-80h-48z" fill="#ffb0a1"/><path d="m208 216v40a56 56 0 1 1 -112 0v-40z" fill="#ffceb6"/><path d="m208 200v24a16 16 0 0 1 -16 16h-24l-4.42229-8.84459a12.94427 12.94427 0 0 0 -11.57771-7.15541 12.94427 12.94427 0 0 0 -11.5777 7.15541l-4.4223 8.84459h-24a16 16 0 0 1 -16-16v-24z" fill="#62798c"/><path d="m205.67993 272a56.01919 56.01919 0 0 1 -107.35986 0h15.04993a35.31834 35.31834 0 0 0 24.97009-10.34009 19.31439 19.31439 0 0 1 27.31982 0 35.30846 35.30846 0 0 0 24.97009 10.34009z" fill="#8760e6"/><path d="m48 192h208v16h-208z" fill="#9977ed"/></svg>