<svg height="512" viewBox="0 0 64 64" width="512" xmlns="http://www.w3.org/2000/svg" xmlns:xlink="http://www.w3.org/1999/xlink"><linearGradient id="New_Gradient_Swatch_1" gradientUnits="userSpaceOnUse" x1="39" x2="39" y1=".842" y2="65.27"><stop offset="0" stop-color="#fff33b"/><stop offset=".014" stop-color="#fee72e"/><stop offset=".042" stop-color="#fed51b"/><stop offset=".07" stop-color="#fdca10"/><stop offset=".1" stop-color="#fdc70c"/><stop offset=".4" stop-color="#f3903f"/><stop offset=".8" stop-color="#ed683c"/><stop offset="1" stop-color="#e93e3a"/></linearGradient><linearGradient id="New_Gradient_Swatch_1-2" x1="50.646" x2="50.646" xlink:href="#New_Gradient_Swatch_1" y1=".842" y2="65.27"/><linearGradient id="New_Gradient_Swatch_1-3" x1="60" x2="60" xlink:href="#New_Gradient_Swatch_1" y1=".842" y2="65.27"/><linearGradient id="New_Gradient_Swatch_1-4" x1="13.354" x2="13.354" xlink:href="#New_Gradient_Swatch_1" y1=".842" y2="65.27"/><linearGradient id="New_Gradient_Swatch_1-5" x1="4" x2="4" xlink:href="#New_Gradient_Swatch_1" y1=".842" y2="65.27"/><linearGradient id="New_Gradient_Swatch_1-6" x1="54" x2="54" xlink:href="#New_Gradient_Swatch_1" y1=".842" y2="65.27"/><linearGradient id="New_Gradient_Swatch_1-7" x1="61" x2="61" xlink:href="#New_Gradient_Swatch_1" y1=".842" y2="65.27"/><linearGradient id="New_Gradient_Swatch_1-8" x1="8" x2="8" xlink:href="#New_Gradient_Swatch_1" y1=".842" y2="65.27"/><linearGradient id="New_Gradient_Swatch_1-9" x1="24.354" x2="24.354" xlink:href="#New_Gradient_Swatch_1" y1=".842" y2="65.27"/><linearGradient id="New_Gradient_Swatch_1-10" x1="15" x2="15" xlink:href="#New_Gradient_Swatch_1" y1=".842" y2="65.27"/><linearGradient id="New_Gradient_Swatch_1-11" x1="19" x2="19" xlink:href="#New_Gradient_Swatch_1" y1=".842" y2="65.27"/><linearGradient id="New_Gradient_Swatch_1-12" x1="35.5" x2="35.5" xlink:href="#New_Gradient_Swatch_1" y1=".842" y2="65.27"/><linearGradient id="New_Gradient_Swatch_1-13" x1="49" x2="49" xlink:href="#New_Gradient_Swatch_1" y1=".842" y2="65.27"/><linearGradient id="New_Gradient_Swatch_1-14" x1="46.5" x2="46.5" xlink:href="#New_Gradient_Swatch_1" y1=".842" y2="65.27"/><g id="Data_analysis-research-analysis-report-presentation" data-name="Data analysis-research-analysis-report-presentation"><path d="m34 14h10a1 1 0 0 0 1-1 11.013 11.013 0 0 0 -11-11 1 1 0 0 0 -1 1v10a1 1 0 0 0 1 1zm1-9.945a9.02 9.02 0 0 1 7.945 7.945h-7.945z" fill="url(#New_Gradient_Swatch_1)"/><path d="m49.414 4h6.586v-2h-7a1 1 0 0 0 -.707.293l-3 3 1.414 1.414z" fill="url(#New_Gradient_Swatch_1-2)"/><path d="m58 2h4v2h-4z" fill="url(#New_Gradient_Swatch_1-3)"/><path d="m17.293 6.707 1.414-1.414-3-3a1 1 0 0 0 -.707-.293h-7v2h6.586z" fill="url(#New_Gradient_Swatch_1-4)"/><path d="m2 2h4v2h-4z" fill="url(#New_Gradient_Swatch_1-5)"/><path d="m50 8h8v2h-8z" fill="url(#New_Gradient_Swatch_1-6)"/><path d="m60 8h2v2h-2z" fill="url(#New_Gradient_Swatch_1-7)"/><path d="m2 8h12v2h-12z" fill="url(#New_Gradient_Swatch_1-8)"/><path d="m25.586 36h-6.586v2h7a1 1 0 0 0 .707-.293l3-3-1.414-1.414z" fill="url(#New_Gradient_Swatch_1-9)"/><path d="m13 36h4v2h-4z" fill="url(#New_Gradient_Swatch_1-10)"/><path d="m13 30h12v2h-12z" fill="url(#New_Gradient_Swatch_1-11)"/><path d="m62 29a12.987 12.987 0 0 0 -21.18-10.09 10.942 10.942 0 0 0 .18-1.91 1 1 0 0 0 -1-1h-9v-9a1 1 0 0 0 -1-1 11.011 11.011 0 0 0 -10.57 8h-5.43a5 5 0 0 0 -5 5v26a5 5 0 0 0 5 5h14v6h-3a3.009 3.009 0 0 0 -3 3v2a1 1 0 0 0 1 1h18a1 1 0 0 0 1-1v-2a3.009 3.009 0 0 0 -3-3h-3v-6h8v7a5 5 0 0 0 10 0v-12a1 1 0 0 0 -1-1h-1v-2.36a13.025 13.025 0 0 0 10-12.64zm-33-20.94v8.94a1 1 0 0 0 1 1h8.94a9 9 0 1 1 -9.94-9.94zm10 49.94a1 1 0 0 1 1 1v1h-16v-1a1 1 0 0 1 1-1zm-9-2v-6h4v6zm15-12a1 1 0 0 0 -1 1v3h-30a3.009 3.009 0 0 1 -3-3v-1h31v-2h-31v-23a3.009 3.009 0 0 1 3-3h5.05c-.03.33-.05.66-.05 1a10.989 10.989 0 0 0 17.38 8.95 12.8 12.8 0 0 0 -.38 3.05 13.025 13.025 0 0 0 10 12.64v2.36zm7 13a3 3 0 0 1 -6 0v-11h6zm-4-13v-2.05c.33.02.66.05 1 .05s.67-.03 1-.05v2.05zm1-4a11 11 0 1 1 11-11 11.007 11.007 0 0 1 -11 11z" fill="url(#New_Gradient_Swatch_1-12)"/><path d="m49 20a9 9 0 1 0 9 9 9.011 9.011 0 0 0 -9-9zm0 16a7 7 0 1 1 7-7 7.008 7.008 0 0 1 -7 7z" fill="url(#New_Gradient_Swatch_1-13)"/><path d="m44 29h2a3 3 0 0 1 3-3v-2a5.006 5.006 0 0 0 -5 5z" fill="url(#New_Gradient_Swatch_1-14)"/><g fill="url(#New_Gradient_Swatch_1-13)"><path d="m48 48h2v2h-2z"/><path d="m48 52h2v6h-2z"/></g></g></svg>