<svg id="Layer_1" enable-background="new 0 0 480 480" height="512" viewBox="0 0 480 480" width="512" xmlns="http://www.w3.org/2000/svg"><path d="m420 167.171c0 10.477-8.523 19-19 19s-19-8.523-19-19 8.523-19 19-19 19 8.523 19 19zm60-50v254c0 22.06-17.94 40-40 40h-78c-22.06 0-40-17.94-40-40v-254c0-22.06 17.94-40 40-40h78c22.06 0 40 17.939 40 40zm-107.061 221.609c-5.332 2.224-6.572 9.078-2.6 13.05 4.52 4.52 12.282 2.136 13.5-4.1 1.319-6.091-4.936-11.431-10.9-8.95zm4.621-45.45c-4.231-.863-8.539 1.875-9.399 6.28-.877 4.055 1.761 8.515 6.279 9.4 4.065.876 8.519-1.769 9.4-6.28.886-4.095-1.801-8.52-6.28-9.4zm0-45c-4.836-.987-9.56 2.715-9.56 7.84 0 4.438 3.617 8 8 8 3.811 0 7.112-2.711 7.84-6.44.883-4.081-1.788-8.517-6.28-9.4zm50 90c-4.84-.987-9.56 2.71-9.56 7.84 0 6.464 7.238 10.161 12.439 6.65 5.847-3.85 4.167-13.106-2.879-14.49zm0-45c-4.84-.987-9.56 2.71-9.56 7.84 0 4.398 3.567 8 8 8 3.826 0 7.114-2.725 7.84-6.44.892-4.123-1.83-8.526-6.28-9.4zm0-45c-4.84-.987-9.56 2.71-9.56 7.84 0 7.281 8.867 10.586 13.649 5.66 4.573-4.569 2.1-12.284-4.089-13.5zm8.44-81.159c0-19.299-15.701-35-35-35s-35 15.701-35 35 15.701 35 35 35 35-15.701 35-35zm-163-22v193c0 22.091-17.909 40-40 40h-193c-22.091 0-40-17.909-40-40v-193c0-22.091 17.909-40 40-40h75.515c2.306 0 4.377 1.49 5.027 3.702 3.047 10.374 12.711 17.36 23.368 17.171 3.001-.053 5.35 2.446 5.313 5.447-.142 11.632 8.293 21.92 19.885 23.905 2.643.453 4.476 2.863 4.304 5.538-1.128 17.504 12.762 32.916 30.929 32.916s32.087-15.402 30.938-32.94c-.174-2.665 1.644-5.083 4.275-5.535 11.794-2.024 20.05-12.358 19.912-23.882-.073-6.085 7.965-7.416 10.213-2.269 2.134 4.888 3.321 10.28 3.321 15.947zm-144 78c0-4.418-3.582-8-8-8h-48c-4.418 0-8 3.582-8 8s3.582 8 8 8h16v48c0 4.418 3.582 8 8 8s8-3.582 8-8v-48h16c4.418 0 8-3.582 8-8zm75.151-7.354c-4.059-1.74-8.764.14-10.505 4.202l-16.646 38.843-16.646-38.843c-1.741-4.061-6.441-5.943-10.505-4.202-4.061 1.74-5.942 6.444-4.202 10.505l24 56c2.76 6.44 11.938 6.461 14.707 0l24-56c1.74-4.061-.142-8.764-4.203-10.505zm-36.581-89.736c-3.12 3.13-3.12 8.19 0 11.31 3.13 3.13 8.19 3.13 11.32.01 14.109-14.109 36.855-14.044 50.91-.01 3.111 3.131 8.188 3.132 11.31.01 3.13-3.13 3.13-8.19 0-11.32-20.283-20.283-53.157-20.363-73.54 0zm26.17 26.16c-9.442 9.442-2.676 25.61 10.6 25.61 13.288 0 20.056-16.164 10.61-25.61-5.847-5.847-15.342-5.869-21.21 0zm77.07-55.86c-36.738-36.738-96.199-36.731-132.93 0-3.13 3.13-3.13 8.19 0 11.32 3.12 3.12 8.19 3.12 11.31 0 30.46-30.481 79.828-30.502 110.31 0 3.113 3.113 8.183 3.126 11.31 0 3.13-3.13 3.13-8.19 0-11.32z"/></svg>