<svg viewBox="0 0 512 512" xmlns="http://www.w3.org/2000/svg"><g id="Lion_Dance" data-name="Lion Dance"><g id="Flat"><path d="m423.717 480c-10.04-.08-10.535 16.071 0 16h16v-16z" fill="#c9acab"/><path d="m344 480c-10.04-.08-10.535 16.071 0 16h16v-16z" fill="#c9acab"/><path d="m159.717 480c-10.04-.08-10.535 16.071 0 16h16v-16z" fill="#c9acab"/><path d="m376 496h-24v-104h48v80a24.028 24.028 0 0 1 -24 24z" fill="#d8c6c5"/><path d="m456 496h-24v-100h48v76a24.028 24.028 0 0 1 -24 24z" fill="#d8c6c5"/><path d="m352 392h48v51.95c-16.86-.74-48-14.484-48-22.761z" fill="#c9acab"/><path d="m480 396v46.95c-17.622 4.453-47.547-14.638-48-18.95v-28z" fill="#c9acab"/><path d="m80 480c-10.04-.08-10.535 16.071 0 16h16v-16z" fill="#c9acab"/><path d="m136 416v56a24.032 24.032 0 0 1 -24 24h-24v-80z" fill="#d8c6c5"/><path d="m216 416v56a24.032 24.032 0 0 1 -24 24h-24v-80z" fill="#d8c6c5"/><path d="m88 416h48v32h-16a32 32 0 0 1 -32-32z" fill="#c9acab"/><path d="m216 416v32h-16a32 32 0 0 1 -32-32z" fill="#c9acab"/><path d="m502.83 304.633c5.9-4.914 9.17-10.742 9.17-16.633 0-35.888-29.649-64-67.5-64h-220.5v184c24.533-1.213 37.112 24.945 52.9 6.371 4.6-5.41 10.895-12.819 23.093-12.819 20.491 0 23.048 20 34 20 10.932 0 13.487-20 34-20 20.653 0 22.929 20 34 20 10.932 0 13.487-20 34-20 20.593 0 22.948 20 34 20 10.647 0 31.972-31.828 39.778-22.145a38.359 38.359 0 0 0 2.229-12.959c0-7.474-6.452-20.83-10.818-29.011a39.042 39.042 0 0 0 10.818-26.989c0-5.284-3.081-13.948-9.17-25.815z" fill="#ff5252"/><path d="m490.137 294.133a37.673 37.673 0 0 1 -20.137 5.867c-11 0-17.308-20-34-20-21.978 0-28.006 32.7-44.905 12.818-4.6-5.409-10.9-12.818-23.1-12.818-20.513 0-23.068 20-34 20-10.952 0-13.508-20-34-20-20.635 0-22.939 20-33.995 20v16c20.637 0 22.938-20 33.995-20 11.073 0 13.348 20 34 20 20.513 0 23.069-20 34-20 11.073 0 13.35 20 34 20 20.513 0 23.069-20 34-20 10.287 0 23.451 37.063 62.956 11.491 8.996-5.826-.641-18.652-8.814-13.358z" fill="#fdd835"/><path d="m503.453 330.448c-11.898 3.965-7.453 25.552-33.453 25.552-11.057 0-13.412-20-34-20-20.513 0-23.068 20-34 20-11.073 0-13.349-20-34-20-20.513 0-23.068 20-34 20-10.952 0-13.508-20-34-20-20.635 0-22.939 20-33.995 20-9.107 0-10.93-11.5-22.545-17.373l-7.016 14.393c6.956 3.694 11.794 18.98 29.55 18.98 20.637 0 22.938-20 33.995-20 11.073 0 13.348 20 34 20 20.513 0 23.069-20 34-20 11.073 0 13.35 20 34 20 20.513 0 23.069-20 34-20 11.074 0 13.351 20 34 20 15.251 0 35.738-11.951 40.825-32a7.636 7.636 0 0 0 -7.361-9.552z" fill="#fdd835"/><path d="m470 428c-20.654 0-22.931-20-34-20-10.931 0-13.487 20-34 20-20.652 0-22.929-20-34-20-10.931 0-13.487 20-34 20-20.651 0-22.927-20-34-20-11.057 0-13.358 20-33.995 20-14.632 0-31.815-18.974-33.994-26.142a7.976 7.976 0 0 1 11.449-7.231c11.604 5.873 13.427 17.373 22.534 17.373 11.056 0 13.36-20 33.995-20 20.491 0 23.048 20 34 20 10.932 0 13.487-20 34-20 20.653 0 22.929 20 34 20 10.932 0 13.487-20 34-20 20.593 0 22.948 20 34 20 7.723 0 21.841-6.9 25.25-19.707 2.632-9.886 18.123-6.327 15.575 3.712-5.081 20.044-25.568 31.995-40.814 31.995z" fill="#fdd835"/><path d="m228 336v72a24.032 24.032 0 0 1 -24 24h-116a24.032 24.032 0 0 1 -24-24v-72z" fill="#ff8a80"/><path d="m116.866 336a101.916 101.916 0 0 1 46.645 96h40.489a24.032 24.032 0 0 0 24-24v-72z" fill="#ff5252"/><path d="m160 384v48h-16v-48c-.146-10.818 16.121-9.869 16 0z" fill="#e53935"/><path d="m112 384v48h-16v-48c-.146-10.818 16.121-9.869 16 0z" fill="#e53935"/><path d="m208 384v48h-16v-48c-.146-10.818 16.121-9.869 16 0z" fill="#e53935"/><path d="m304 256h-272v-86a98.111 98.111 0 0 1 98-98h76a98.111 98.111 0 0 1 98 98z" fill="#ff8a80"/><path d="m238.892 77.685c-12.422 98.547-121.034 152.515-206.892 104.709v73.606h272v-86a98.167 98.167 0 0 0 -65.108-92.315z" fill="#ff5252"/><path d="m227.56 360h-126.416a48.13 48.13 0 0 1 -47.068-38.586l-15.483-77.414h251.517l-15.482 77.414a48.132 48.132 0 0 1 -47.068 38.586z" fill="#eee6e6"/><path d="m58.11 260 11.656 58.275a32.083 32.083 0 0 0 31.378 25.725h126.416a32.085 32.085 0 0 0 31.378-25.725l11.655-58.275z" fill="#fdd835"/><path d="m58.11 260 6.854 34.27c51.619-38.593 126.893-13.246 143.867 49.73h18.729a32.085 32.085 0 0 0 31.378-25.725l11.655-58.275z" fill="#fbc02d"/><path d="m208.216 328h-87.729a31.953 31.953 0 0 1 -31.512-26.439l-10.159-57.561h171.071l-10.158 57.562a31.955 31.955 0 0 1 -31.513 26.438z" fill="#e53935"/><path d="m97.887 260 6.843 38.781a15.979 15.979 0 0 0 15.757 13.219h87.729a15.979 15.979 0 0 0 15.757-13.219l6.843-38.781z" fill="#ff8a80"/><path d="m97.887 260 5.24 29.693a75.972 75.972 0 0 1 87.788 22.307h17.3a15.979 15.979 0 0 0 15.757-13.219l6.844-38.781z" fill="#ff5252"/><path d="m77.538 216a49.906 49.906 0 0 1 -49.716-49.982c0-17.234 8.735-27.871 9.729-29.991h19.717c30.3.275 56.887 24.379 66.72 48.131-8.017 18.801-25.724 31.842-46.45 31.842z" fill="#e53935"/><path d="m79.543 192a24 24 0 1 1 23.9-24 23.976 23.976 0 0 1 -23.9 24z" fill="#fdd835"/><path d="m258.447 216c-20.585 0-38.73-12.867-46.45-31.842 0 0 37.6-48.1 66.721-48.131h19.717c1 2.142 9.728 12.6 9.728 29.991a49.906 49.906 0 0 1 -49.716 49.982z" fill="#e53935"/><path d="m256.443 192a24 24 0 1 1 23.9-24 23.977 23.977 0 0 1 -23.9 24z" fill="#fdd835"/><g fill="#e53935"><path d="m140.96 195.06a8 8 0 0 1 8.95-10.9c8.564 1.674 8.5 14.018 0 15.68-2.457.531-7.41-1.092-8.95-4.78z"/><path d="m175.91 198.649a8.007 8.007 0 0 1 2.88-14.489c7.763-1.583 12.743 7.977 7.22 13.5-1.49 1.489-6.443 3.458-10.1.989z"/><path d="m140.352 112v44c-.1 10.183 16.1 10.278 16 0v-44z"/><path d="m172.352 112v44c-.1 10.183 16.1 10.278 16 0v-44z"/></g><path d="m164.352 16a8 8 0 0 0 -8 8v24h16v-24a8 8 0 0 0 -8-8z" fill="#f9a825"/><circle cx="164.352" cy="80" fill="#fdd835" r="40"/><path d="m12.352 236.439a10 10 0 0 1 16.174-7.863c16.87 13.272 37.845 14.77 55.138 6.017 48.767-24.678 111.89-25.043 161.376 0 17.264 8.736 38.24 7.276 55.135-6.017a10 10 0 0 1 16.177 7.862c0 44.987-46.472 71.415-93.524 51.662-39.065-16.4-79.141-15.872-116.953 0-47.063 19.761-93.523-7-93.523-51.661z" fill="#eee6e6"/><path d="m208 181.725c.663-56.325 23.776-93.725 79.813-93.725 30.614 0 48.172 18.963 48.172 52.027a12 12 0 0 1 -11.974 12h-45.293c-20.773 0-41.4 17.555-51.033 34.9-5.35 9.611-19.814 5.485-19.685-5.202z" fill="#eee6e6"/><path d="m108.3 186.919c-9.636-17.337-30.261-34.892-51.032-34.892h-45.293a12 12 0 0 1 -11.975-12c0-33.064 17.559-52.027 48.173-52.027 56.06 0 79.149 37.39 79.811 93.727.13 10.704-14.356 14.794-19.684 5.192z" fill="#eee6e6"/><path d="m99.938 104.545a50 50 0 0 1 -31.759 49.032c16.79 4.643 32.184 19.062 40.121 33.342 5.293 9.539 19.816 5.632 19.684-5.192-.335-28.502-6.36-58.852-28.046-77.182z" fill="#d8c6c5"/><path d="m277.015 88.513a49.984 49.984 0 0 1 -15.673 67.341c14.71-6.326 20.645-2.787 62.669-3.827a12 12 0 0 0 11.974-12c0-34.508-18.544-55.403-58.97-51.514z" fill="#d8c6c5"/><path d="m187.323 47.284c-5.283 28.582-38.535 42.165-62.295 25.432a40.027 40.027 0 0 0 39.324 47.284c38.737 0 55.01-50.152 22.971-72.716z" fill="#fbc02d"/><circle cx="148" cy="60" fill="#fff" r="8"/><circle cx="36" cy="116" fill="#fff" r="16"/><circle cx="248" cy="124" fill="#fff" r="12"/><circle cx="120" cy="244" fill="#fff" r="12"/><path d="m300.175 228.577c-10.584 8.328-23.711 12.8-38 11.152a95.94 95.94 0 0 1 -66.9 39.609 158.63 158.63 0 0 1 27.554 8.763c46.459 19.5 93.524-6.107 93.524-51.662a10 10 0 0 0 -16.178-7.862z" fill="#d8c6c5"/><circle cx="460" cy="248" fill="#ffccbc" r="12"/></g></g></svg>