<svg id="Layer_3" enable-background="new 0 0 64 64" height="512" viewBox="0 0 64 64" width="512" xmlns="http://www.w3.org/2000/svg"><g><path d="m50 58h-36c-1.105 0-2-.895-2-2v-52c0-1.105.895-2 2-2h36c1.105 0 2 .895 2 2v52c0 1.105-.895 2-2 2z" fill="#c7e2fc"/><path d="m14 58v4h36v-4" fill="#8892a0"/><path d="m15 20h8v3h-8z" fill="#243242"/><path d="m15 23h8v9h-8z" fill="#fff"/><path d="m26 2h3v56h-3z" fill="#a1cdfb"/><g><path d="m18 27h2v2h-2z" fill="#c7e2fc"/></g><path d="m36 6h10v4h-10z" fill="#e47c6e"/><g><path d="m32 26h2v11.999h-2z" fill="#4d5d7a"/></g><path d="m35 52h14v3h-14z" fill="#e47c6e"/><path d="m48.999 41.999h-1.584l1.292-1.292-1.415-1.415-2.707 2.707h-1.586v-1.585l2.708-2.708-1.415-1.415-1.293 1.293v-1.585h-1.999v1.585l-1.293-1.293-1.415 1.415 2.708 2.708v1.585h-1.585l-2.708-2.708-1.415 1.415 1.294 1.293h-1.586v1.999h1.585l-1.293 1.293 1.415 1.415 2.708-2.708h1.585v1.585l-2.708 2.708 1.415 1.415 1.293-1.293v1.585h1.999v-1.585l1.293 1.293 1.415-1.415-2.708-2.708v-1.585h1.584l2.709 2.709 1.415-1.415-1.295-1.294h1.587z" fill="#a1cdfb"/></g></svg>