<?xml version="1.0" encoding="iso-8859-1"?>
<!-- Generator: Adobe Illustrator 19.0.0, SVG Export Plug-In . SVG Version: 6.00 Build 0)  -->
<svg version="1.1" id="Capa_1" xmlns="http://www.w3.org/2000/svg" xmlns:xlink="http://www.w3.org/1999/xlink" x="0px" y="0px"
	 viewBox="0 0 512.001 512.001" style="enable-background:new 0 0 512.001 512.001;" xml:space="preserve">
<path style="fill:#FFABCA;" d="M280.482,34.916c-14.675-10.368-34.29-10.368-48.965,0L6.673,193.761l224.844,158.845
	c14.675,10.367,34.289,10.367,48.965,0l224.845-158.845L280.482,34.916z"/>
<path style="fill:#FFFFFF;" d="M362.98,132.188H149.02c-9.873,0-17.877,8.004-17.877,17.877v248.042
	c0,9.873,8.004,17.876,17.877,17.876h213.96c9.873,0,17.876-8.004,17.876-17.876V150.065
	C380.857,140.192,372.853,132.188,362.98,132.188z"/>
<path style="fill:#ED6EA4;" d="M256,187.204c-16.014-16.014-41.999-15.98-57.97,0.103c-15.936,16.047-15.575,42.088,0.416,58.08
	l48.492,48.492c5.005,5.005,13.119,5.005,18.123,0l48.492-48.492c15.991-15.991,16.352-42.033,0.416-58.08
	C297.999,171.225,272.014,171.19,256,187.204z"/>
<g>
	<path style="fill:#EAEAEA;" d="M281.138,350.398c-15.068,10.645-35.207,10.645-50.275,0L10.548,194.753
		C6.117,191.623,0,194.791,0,200.215v250.761c0,18.713,15.17,33.884,33.884,33.884h444.233c18.713,0,33.884-15.17,33.884-33.884
		V200.215c0-5.424-6.117-8.592-10.548-5.463L281.138,350.398z"/>
	<path style="fill:#EAEAEA;" d="M281.138,321.763c-15.068-10.645-35.207-10.645-50.275,0L11.711,476.586
		c5.943,5.15,13.691,8.274,22.172,8.274h444.233c8.482,0,16.229-3.124,22.172-8.274L281.138,321.763z"/>
</g>
<path style="opacity:0.1;enable-background:new    ;" d="M281.138,321.763c-15.068-10.645-35.207-10.645-50.275,0L11.711,476.586
	c5.943,5.15,13.691,8.274,22.172,8.274h444.233c8.482,0,16.229-3.124,22.172-8.274L281.138,321.763z"/>
<g>
	<path style="fill:#394049;" d="M167.15,411.272c-4.143,0-7.5-3.358-7.5-7.5v-6.503c0-4.142,3.357-7.5,7.5-7.5s7.5,3.358,7.5,7.5
		v6.503C174.65,407.914,171.293,411.272,167.15,411.272z"/>
	<path style="fill:#394049;" d="M268.536,431.813c-4.74,0-9.102-1.655-12.536-4.417c-3.435,2.762-7.796,4.417-12.536,4.417
		c-11.048,0-20.036-8.988-20.036-20.036c0-4.142,3.357-7.5,7.5-7.5s7.5,3.358,7.5,7.5c0,2.777,2.259,5.036,5.036,5.036
		s5.036-2.259,5.036-5.036c0-4.142,3.357-7.5,7.5-7.5s7.5,3.358,7.5,7.5c0,2.777,2.259,5.036,5.036,5.036s5.036-2.259,5.036-5.036
		c0-4.142,3.357-7.5,7.5-7.5s7.5,3.358,7.5,7.5C288.572,422.824,279.584,431.813,268.536,431.813z"/>
	<path style="fill:#394049;" d="M344.85,411.272c-4.143,0-7.5-3.358-7.5-7.5v-6.503c0-4.142,3.357-7.5,7.5-7.5s7.5,3.358,7.5,7.5
		v6.503C352.35,407.914,348.992,411.272,344.85,411.272z"/>
</g>
<g>
	<path style="fill:#ED6EA4;" d="M174.39,438.817h-14.479c-4.143,0-7.5-3.358-7.5-7.5s3.357-7.5,7.5-7.5h14.479
		c4.143,0,7.5,3.358,7.5,7.5C181.89,435.46,178.532,438.817,174.39,438.817z"/>
	<path style="fill:#ED6EA4;" d="M352.089,438.817H337.61c-4.143,0-7.5-3.358-7.5-7.5s3.357-7.5,7.5-7.5h14.478
		c4.143,0,7.5,3.358,7.5,7.5C359.589,435.46,356.231,438.817,352.089,438.817z"/>
</g>
<g>
</g>
<g>
</g>
<g>
</g>
<g>
</g>
<g>
</g>
<g>
</g>
<g>
</g>
<g>
</g>
<g>
</g>
<g>
</g>
<g>
</g>
<g>
</g>
<g>
</g>
<g>
</g>
<g>
</g>
</svg>
